<?xml version="1.0" standalone="no"?>
<!DOCTYPE svg PUBLIC "-//W3C//DTD SVG 20010904//EN"
 "http://www.w3.org/TR/2001/REC-SVG-20010904/DTD/svg10.dtd">
<svg version="1.0" xmlns="http://www.w3.org/2000/svg"
 width="305.000000pt" height="305.000000pt" viewBox="0 0 305.000000 305.000000"
 preserveAspectRatio="xMidYMid meet">
<metadata>
Created by potrace 1.11, written by Peter Selinger 2001-2013
</metadata>
<g transform="translate(0.000000,305.000000) scale(0.100000,-0.100000)"
fill="#000000" stroke="none">
<path d="M1629 3032 c-3 -52 -1 -443 2 -446 2 -2 18 -6 34 -9 191 -34 368
-199 413 -387 16 -66 8 -176 -18 -243 -24 -64 -74 -136 -128 -183 -30 -27 -33
-33 -23 -52 l12 -22 437 0 438 0 -2 43 c-2 23 -5 204 -8 402 -3 198 -10 377
-15 398 -19 79 -87 136 -220 184 -67 25 -100 34 -271 79 -183 48 -409 133
-592 224 -50 25 -58 27 -59 12z"/>
<path d="M1275 2974 c-198 -87 -320 -131 -475 -171 -366 -94 -461 -137 -511
-236 -21 -40 -19 -4 -34 -654 l-5 -223 444 0 445 0 3 22 c2 16 -11 36 -43 68
-214 214 -173 541 89 713 67 45 163 86 208 89 13 1 24 7 25 13 4 39 3 428 -1
434 -3 4 -68 -21 -145 -55z"/>
<path d="M1423 2435 c-119 -26 -236 -113 -284 -212 -33 -67 -34 -179 -1 -245
29 -58 102 -132 154 -155 33 -16 37 -22 33 -43 -4 -14 -61 -158 -127 -320
-132 -320 -178 -453 -178 -512 0 -83 104 -145 295 -175 64 -10 344 -10 410 -1
133 20 239 61 279 109 51 60 36 119 -155 582 -66 159 -122 299 -125 312 -5 19
1 27 38 49 56 33 121 100 150 156 33 66 32 176 -4 245 -84 161 -293 251 -485
210z"/>
<path d="M258 1409 c-10 -7 -5 -199 7 -252 2 -12 6 -35 9 -52 37 -247 154
-477 322 -636 157 -148 406 -296 705 -419 l119 -49 1 42 c3 216 -1 560 -6 565
-4 4 -16 7 -28 8 -168 5 -362 71 -441 150 -55 55 -70 90 -72 171 -3 86 17 163
88 341 27 68 47 126 44 129 -8 8 -736 9 -748 2z"/>
<path d="M2051 1368 c10 -26 29 -73 42 -105 60 -144 81 -226 82 -314 0 -82 -2
-89 -34 -136 -69 -101 -212 -167 -411 -189 -30 -4 -62 -8 -70 -10 -8 -1 -19
-3 -25 -3 -6 -1 -9 -106 -8 -298 1 -164 2 -301 2 -305 2 -11 166 58 336 142
355 173 566 354 694 594 77 145 127 354 135 560 4 94 2 106 -12 107 -10 0
-182 2 -383 2 l-367 2 19 -47z"/>
</g>
</svg>
