<?xml version="1.0" encoding="UTF-8"?>
<svg width="200px" height="137px" viewBox="0 0 200 137" version="1.1" xmlns="http://www.w3.org/2000/svg" xmlns:xlink="http://www.w3.org/1999/xlink">
    <!-- Generator: Sketch 55 (78076) - https://sketchapp.com -->
    <title>Chart Copy</title>
    <desc>Created with Sketch.</desc>
    <g id="SafeName.io" stroke="none" stroke-width="1" fill="none" fill-rule="evenodd">
        <g id="Chart-Copy" fill-rule="nonzero">
            <g id="Group-2">
                <path d="M166.995158,113.817807 L165.03645,113.413502 C165.101821,113.096806 165.164875,112.77951 165.225604,112.461632 L167.190075,112.836941 C167.12745,113.164738 167.062471,113.491699 166.995158,113.817807 Z M167.925929,108.071661 L165.939771,107.836763 C165.977756,107.515584 166.013405,107.19395 166.046712,106.871877 L168.036102,107.077613 C168.001762,107.409677 167.965031,107.741032 167.925929,108.071661 Z M168.362794,102.270659 L166.363869,102.205075 C166.374476,101.881798 166.38275,101.5582 166.388687,101.234294 L168.388351,101.270948 C168.382232,101.604778 168.373708,101.938021 168.362794,102.270659 Z M168.309258,96.4565862 L166.311888,96.5591199 C166.295244,96.2348817 166.276246,95.9110019 166.254902,95.5874974 L168.250563,95.4558248 C168.27253,95.7887629 168.292101,96.1223557 168.309258,96.4565862 Z M167.766425,90.6788949 L165.784956,90.9505181 C165.740983,90.6297357 165.694671,90.309446 165.646027,89.9896672 L167.623282,89.6888946 C167.673363,90.0181248 167.721084,90.3481309 167.766425,90.6788949 Z M166.728491,84.9485611 L164.777673,85.3893679 C164.706526,85.0745032 164.633079,84.7602744 164.55734,84.4467008 L166.501434,83.9771305 C166.579431,84.3000477 166.655122,84.623864 166.728491,84.9485611 Z M165.212532,79.36461 L163.306639,79.9708876 C163.208638,79.6628122 163.108375,79.3555278 163.005861,79.049055 L164.902565,78.4146139 C165.008145,78.730254 165.111474,79.0469257 165.212532,79.36461 Z M163.210168,73.8983246 L161.363603,74.6665666 C161.239092,74.3672886 161.112375,74.0689661 160.983464,73.7716208 L162.818437,72.9760871 C162.951208,73.2823373 163.081792,73.5897564 163.210168,73.8983246 Z M160.752725,68.6399212 L158.978782,69.5635686 C158.829436,69.2767371 158.677981,68.9910183 158.524432,68.7064341 L160.284569,67.75674 C160.442716,68.0498471 160.598775,68.3442474 160.752725,68.6399212 Z M157.867891,63.6320846 L156.178888,64.7031906 C156.00573,64.4301423 155.830569,64.158367 155.65342,63.8878866 L157.326517,62.7921018 C157.508972,63.0706822 157.689436,63.3506832 157.867891,63.6320846 Z M154.546661,58.8583378 L152.955095,60.0695026 C152.759014,59.8118359 152.561043,59.5556052 152.361201,59.3008321 L153.934848,58.0664761 C154.14068,58.3288856 154.344624,58.5928463 154.546661,58.8583378 Z M150.826902,54.3798456 L149.344181,55.7220593 C149.12708,55.4822322 148.908228,55.2439923 148.687644,55.0073601 L150.150593,53.643623 C150.377806,53.8873658 150.603249,54.1327801 150.826902,54.3798456 Z M146.000776,49.5555615 C146.248334,49.7794887 146.494237,50.0052126 146.738463,50.2327127 L145.375249,51.6961498 C145.138148,51.4752864 144.899434,51.2561617 144.659128,51.0387952 L146.000776,49.5555615 Z M142.304492,46.4423896 L141.070986,48.016703 C140.816073,47.8169738 140.559703,47.6191172 140.301899,47.4231509 L141.512201,45.8309295 C141.777835,46.0328471 142.041939,46.236674 142.304492,46.4423896 Z M137.666061,43.1116151 L136.568568,44.7835926 C136.298062,44.6060316 136.026258,44.4304604 135.753177,44.2568947 L136.82599,42.5689752 C137.107424,42.7478502 137.387455,42.9287369 137.666061,43.1116151 Z M132.680071,40.135303 L131.729291,41.8948535 C131.444445,41.740936 131.158461,41.5891178 130.871359,41.4394129 L131.796069,39.6660228 C132.09202,39.8203425 132.386694,39.9767759 132.680071,40.135303 Z M127.448241,37.5921104 L126.651987,39.4267712 C126.355036,39.2978927 126.057109,39.1712027 125.758229,39.0467132 L126.527227,37.2004627 C126.835385,37.3288164 127.142396,37.4593722 127.448241,37.5921104 Z M122.021224,35.5094273 L121.38572,37.4057751 C121.079198,37.3030535 120.771863,37.2025848 120.463735,37.1043789 L121.071071,35.198823 C121.388809,35.3000919 121.705533,35.4036331 122.021224,35.5094273 Z M116.433556,33.9011401 L115.963668,35.8451582 C115.649352,35.769185 115.334377,35.6955151 115.018763,35.6241567 L115.459818,33.6733952 C115.785288,33.7469821 116.109874,33.8229033 116.433556,33.9011401 Z M110.719449,32.7779793 L110.41843,34.7551964 C110.098744,34.7065262 109.778546,34.6601866 109.457856,34.616184 L109.729734,32.6347495 C110.060402,32.6801213 110.390313,32.7278705 110.719449,32.7779793 Z M104.932843,32.1486812 L104.801501,34.1443638 C104.478832,34.1231279 104.155791,34.1042274 103.832393,34.0876672 L103.934673,32.0902842 C104.268036,32.1073547 104.600765,32.126826 104.932843,32.1486812 Z M99.1134627,32.0119259 L99.1505665,34.0115817 C98.8277048,34.0175724 98.505148,34.0258851 98.1829121,34.0365154 L98.1169695,32.0376028 C98.4485386,32.0266646 98.7807085,32.0181002 99.1134627,32.0119259 Z M93.3235259,32.3637687 L93.5292276,34.3531623 C93.2080477,34.386372 92.8873037,34.4219104 92.5670132,34.4597717 L92.3322297,32.4736003 C92.6619449,32.434625 92.9923827,32.3980087 93.3235259,32.3637687 Z M87.5697807,33.2086295 L87.9448904,35.1731378 C87.6278005,35.233684 87.3112885,35.2965427 86.9953733,35.3617066 L86.5913384,33.4029428 C86.9166429,33.3358421 87.2427963,33.271065 87.5697807,33.2086295 Z M81.9323455,34.5377179 L82.4743588,36.4628728 C82.1622499,36.5507448 81.8508757,36.6409123 81.5402565,36.733366 L80.9697063,34.8164747 C81.2896058,34.7212587 81.6104918,34.6283334 81.9323455,34.5377179 Z M76.4073975,36.353636 L77.1131809,38.2249643 C76.8110177,38.3389271 76.5097404,38.4551081 76.2093702,38.5734961 L75.4759972,36.712807 C75.7853612,36.5908741 76.0958344,36.471144 76.4073975,36.353636 Z M71.0440894,38.6455091 L71.9085687,40.4490266 C71.6169205,40.5888222 71.3263228,40.7307627 71.0367973,40.8748351 L70.1457875,39.0842761 C70.4439845,38.9358887 70.7434251,38.7896264 71.0440894,38.6455091 Z M65.9620363,41.3527205 L66.9763807,43.0764099 C66.6974887,43.2405303 66.419809,43.4067007 66.1433637,43.574906 L65.1037664,41.8663283 C65.3884899,41.6930862 65.6745866,41.5218768 65.9620363,41.3527205 Z M61.0799242,44.5141778 L62.2376984,46.1449932 C61.9740197,46.3321881 61.7117121,46.5213156 61.4507971,46.7123587 L60.2692547,45.0986804 C60.5379862,44.901914 60.8082161,44.707073 61.0799242,44.5141778 Z M56.4875199,48.0780355 L57.7797929,49.6044792 C57.5332058,49.8132375 57.2881429,50.0237967 57.0446251,50.2361379 L55.730201,48.7287265 C55.9810276,48.5100122 56.233474,48.2931083 56.4875199,48.0780355 Z M52.206455,52.0272704 L53.6238919,53.4382533 C53.3957883,53.6674003 53.1693602,53.8982101 52.9446276,54.1306627 L51.506739,52.7405273 C51.7382414,52.5010724 51.9714869,52.2633133 52.206455,52.0272704 Z M48.2725706,56.3313676 L49.8050252,57.6165069 C49.5969088,57.8646737 49.3906139,58.1143585 49.186159,58.36554 L47.6350497,57.1029792 C47.8456977,56.8441892 48.0582115,56.5869785 48.2725706,56.3313676 Z M44.7518775,60.9095382 L46.3874531,62.060578 C46.2013668,62.3249982 46.0172225,62.5907758 45.8350368,62.8578891 L44.1827635,61.7309494 C44.3705061,61.4556889 44.5602175,61.1818784 44.7518775,60.9095382 Z M41.6424323,65.7501402 L43.3693681,66.7589479 C43.2062411,67.0381981 43.0451691,67.3186473 42.8861667,67.6002736 L41.1445706,66.6169919 C41.3084598,66.32671 41.4744204,66.0377528 41.6424323,65.7501402 Z M38.9289582,70.888496 L40.7359194,71.7457542 C40.5973543,72.0378269 40.4609391,72.3309356 40.3266865,72.6250587 L38.5072615,71.7945813 C38.6456708,71.4913517 38.786243,71.1893167 38.9289582,70.888496 Z M36.664708,76.244529 L38.5386711,76.9432867 C38.4256728,77.2463312 38.3149044,77.5502516 38.2063768,77.8550268 L36.322266,77.1841122 C36.4341734,76.8698457 36.5483272,76.5566449 36.664708,76.244529 Z M34.868898,81.7785708 L36.7960929,82.3132856 C36.7096495,82.6248411 36.6254923,82.9371145 36.54363,83.2500859 L34.6087244,82.743983 C34.6931432,82.4212376 34.779874,82.0994273 34.868898,81.7785708 Z M33.5569349,87.4435702 L35.5229705,87.8105907 C35.4636405,88.1284069 35.4066321,88.4467903 35.3519526,88.7657221 L33.3807138,88.4277612 C33.4370983,88.0988848 33.4958447,87.7708151 33.5569349,87.4435702 Z M32.7346066,93.2115281 L34.7248546,93.4087908 C34.6929605,93.7305817 34.6634024,94.0527979 34.636186,94.3754222 L32.6432648,94.2073004 C32.6713237,93.8746889 32.7017767,93.542759 32.7346066,93.2115281 Z M32.399999,99.9999951 C32.399999,99.6733569 32.402302,99.3472567 32.4068927,99.0217098 L34.4066939,99.0499101 C34.4022609,99.3642694 34.4000281,99.6789071 34.3999993,99.9936604 C34.4000001,100.015112 34.4000001,100.015112 34.4000057,100.030047 L32.399999,100.030938 C32.4000013,100.020624 32.399999,100.01031 32.399999,99.9999951 Z M32.568432,104.823526 L34.5635386,104.683707 C34.5861706,105.006647 34.6111431,105.329201 34.638451,105.651352 L32.645598,105.820281 C32.6174909,105.488702 32.5917632,105.156445 32.568432,104.823526 Z M33.2207127,110.596299 L35.1966705,110.287122 C35.2468221,110.607642 35.2993178,110.927635 35.3541509,111.247083 L33.3829789,111.585433 C33.3265217,111.256523 33.2724269,110.926806 33.2207127,110.596299 Z" id="inner_dashes" fill="#E0E7FF"></path>
                <path d="M198.759407,115.773896 C198.649203,116.468031 198.531731,117.160602 198.407022,117.851518 L174.788677,113.588451 C174.883272,113.064374 174.972493,112.538428 175.056282,112.010673 L198.759407,115.773896 Z" id="Path" fill="#E0E7FF"></path>
                <path d="M199.749434,107.119844 C199.700055,107.819342 199.643401,108.517789 199.579495,109.215099 L175.679655,107.024737 C175.728235,106.494663 175.771372,105.963014 175.809009,105.429847 L199.749434,107.119844 Z" id="Path" fill="#E0E7FF"></path>
                <path d="M199.987977,98.4377832 C199.995998,98.9590682 199.99999,99.4798268 199.99999,100.007436 C199.999977,100.184325 199.999503,100.361173 199.998567,100.537978 L175.998903,100.41092 C175.999628,100.27403 175.99999,100.137055 175.99999,99.9999951 C175.99999,99.6016246 175.996925,99.2039701 175.990818,98.8070538 L199.987977,98.4377832 Z" id="Path" fill="#E0E7FF"></path>
                <path d="M199.482895,89.7858539 C199.553845,90.4831876 199.61753,91.1817182 199.673928,91.8813591 L175.751524,93.8097276 C175.708553,93.2766445 175.66008,92.7451148 175.606163,92.2151952 L199.482895,89.7858539 Z" id="Path" fill="#E0E7FF"></path>
                <path d="M198.227638,81.1819315 C198.359221,81.8719311 198.483571,82.5636465 198.600655,83.2569859 L174.93571,87.2532838 C174.846708,86.7262362 174.75228,86.2010324 174.652486,85.6777318 L198.227638,81.1819315 Z" id="Path" fill="#E0E7FF"></path>
                <path d="M196.224946,72.711626 C196.416695,73.3887853 196.601314,74.0681967 196.778763,74.7497647 L173.553021,80.7966581 C173.418277,80.2791138 173.278214,79.7637157 173.132896,79.2505258 L196.224946,72.711626 Z" id="Path" fill="#E0E7FF"></path>
                <path d="M193.482838,64.4322454 C193.73324,65.0900943 193.976708,65.7507314 194.213191,66.4140592 L171.606859,74.473449 C171.427308,73.9698153 171.242595,73.4686323 171.052783,72.9699637 L193.482838,64.4322454 Z" id="Path" fill="#E0E7FF"></path>
                <path d="M190.022125,56.4168825 C190.32829,57.0483869 190.627817,57.6831927 190.920651,58.3212024 L169.108434,68.3325572 C168.885991,67.84791 168.6586,67.3660058 168.426326,66.8869091 L190.022125,56.4168825 Z" id="Path" fill="#E0E7FF"></path>
                <path d="M185.923003,48.818223 C186.282503,49.4207575 186.635676,50.0271054 186.982456,50.6371698 L166.117743,62.4973444 C165.854123,62.0335785 165.585765,61.5728577 165.312734,61.115248 L185.923003,48.818223 Z" id="Path" fill="#2E5BFF"></path>
                <path d="M181.139355,41.5403713 C181.550094,42.1096985 181.954856,42.6833466 182.353567,43.2612204 L162.599297,56.8909236 C162.295981,56.451311 161.988154,56.0150505 161.675882,55.5822089 L181.139355,41.5403713 Z" id="Path" fill="#2E5BFF"></path>
                <path d="M175.748406,34.7126854 C176.20621,35.2434799 176.658451,35.7790623 177.10505,36.3193412 L158.606698,51.6102205 C158.266795,51.1990184 157.922648,50.7914535 157.574324,50.3875931 L175.748406,34.7126854 Z" id="Path" fill="#2E5BFF"></path>
                <path d="M169.78448,28.3750497 C170.2862,28.8639384 170.782797,29.3580632 171.274182,29.8573377 L154.169019,46.6922236 C153.795008,46.3122081 153.417028,45.9361099 153.035148,45.563996 L169.78448,28.3750497 Z" id="Path" fill="#2E5BFF"></path>
                <path d="M163.28683,22.5710865 C163.829212,23.0148062 164.366929,23.4641893 164.899888,23.9191552 L149.31757,42.1726859 C148.912077,41.8265326 148.502899,41.4845695 148.090103,41.1468635 L163.28683,22.5710865 Z" id="Path" fill="#2E5BFF"></path>
                <path d="M142.879294,37.2427779 L156.436603,17.4387545 C157.015423,17.8349991 157.590045,18.2372995 158.160375,18.6455819 L144.190187,38.1605465 C143.756601,37.8501547 143.319614,37.5442096 142.879294,37.2427779 Z" id="Path" fill="#2E5BFF"></path>
                <path d="M149.049939,12.8404264 C149.661287,13.1850306 150.268938,13.5360418 150.872798,13.8933939 L138.649954,34.5477423 C138.19136,34.2763548 137.729666,34.0096498 137.26494,33.747693 L149.049939,12.8404264 Z" id="Path" fill="#2E5BFF"></path>
                <path d="M141.281903,8.89822875 C141.921766,9.18852656 142.558446,9.4855448 143.191845,9.78922566 L132.816033,31.4304486 C132.335523,31.2000699 131.852217,30.9745933 131.366178,30.7540836 L141.281903,8.89822875 Z" id="Path" fill="#2E5BFF"></path>
                <path d="M133.195363,5.64847441 C133.858675,5.88184075 134.51933,6.12218053 135.17723,6.36944478 L126.733753,28.8351454 C126.235059,28.6477168 125.733872,28.4653798 125.230257,28.2881979 L133.195363,5.64847441 Z" id="Path" fill="#2E5BFF"></path>
                <path d="M118.896901,26.3678749 L124.846307,3.11697025 C125.527719,3.29132882 126.207005,3.47284634 126.88407,3.66148297 L120.442777,26.7809497 C119.929652,26.6379885 119.41434,26.5002763 118.896901,26.3678749 Z" id="Path" fill="#2E5BFF"></path>
                <path d="M116.304608,1.32630697 C116.998121,1.44024545 117.690037,1.56144617 118.380266,1.68987848 L113.989897,25.2848918 C113.466386,25.1874811 112.940988,25.0954368 112.413764,25.0088181 L116.304608,1.32630697 Z" id="Path" fill="#2E5BFF"></path>
                <path d="M107.65302,0.289618218 C108.352268,0.342715705 109.050434,0.403087819 109.747433,0.470712796 L107.429762,24.3585424 C106.900018,24.3071449 106.368681,24.261186 105.835809,24.2207223 L107.65302,0.289618218 Z" id="Path" fill="#2E5BFF"></path>
                <path d="M98.9697382,0.00522295085 C99.3141458,0.00172958777 99.6575875,-5.08994532e-07 100.009183,1.12326148e-10 C100.363097,3.19855578e-05 100.716845,0.00191202841 101.070418,0.00563830788 L100.817497,24.0043056 C100.545337,24.0014373 100.272834,23.9999996 99.9999949,23.9999996 C99.7374035,23.9999996 99.4751231,24.0013313 99.2131602,24.0039885 L98.9697382,0.00522295085 Z" id="Path" fill="#2E5BFF"></path>
                <path d="M90.3196923,0.464221872 C91.0172699,0.397014081 91.7160132,0.337070438 92.4158358,0.284412693 L94.2166112,24.2167592 C93.6832875,24.2568888 93.1514995,24.3025227 92.6213038,24.3536041 L90.3196923,0.464221872 Z" id="Path" fill="#2E5BFF"></path>
                <path d="M81.7013339,1.67472822 C82.3921881,1.5467748 83.0847272,1.42606472 83.7788595,1.31262861 L87.6496269,24.9984294 C87.121922,25.0846677 86.5960441,25.1763409 86.0720525,25.2733896 L81.7013339,1.67472822 Z" id="Path" fill="#2E5BFF"></path>
                <path d="M79.6512425,26.7548177 L73.2398743,3.62703448 C73.916035,3.43959259 74.5944009,3.25924805 75.2748774,3.08604038 L81.1950344,26.3444096 C80.678302,26.4759381 80.1636843,26.6127612 79.6512425,26.7548177 Z" id="Path" fill="#2E5BFF"></path>
                <path d="M64.9388927,6.3258803 C65.5966029,6.07962325 66.2570556,5.8402834 66.9201542,5.60790946 L74.8573713,28.2574257 C74.3539197,28.4338535 73.8528888,28.6154309 73.3543419,28.8020947 L64.9388927,6.3258803 Z" id="Path" fill="#2E5BFF"></path>
                <path d="M56.9014236,9.74456317 C57.5357727,9.44123581 58.1734032,9.14458781 58.8142171,8.85467704 L68.7067781,30.7210265 C68.2200203,30.9412406 67.7359968,31.166434 67.2547724,31.3965416 L56.9014236,9.74456317 Z" id="Path" fill="#2E5BFF"></path>
                <path d="M49.2742855,13.8065167 C49.8783036,13.450463 50.4860987,13.1007472 51.0975741,12.7574352 L62.8471248,33.6846438 C62.3823086,33.9456142 61.9205148,34.21133 61.4618091,34.4817257 L49.2742855,13.8065167 Z" id="Path" fill="#2E5BFF"></path>
                <path d="M41.9750809,18.5487756 C42.5467645,18.1409588 43.1227412,17.7391453 43.7029157,17.3434092 L57.2267944,37.1702774 C56.7854488,37.4713187 56.3474387,37.7768888 55.9128311,38.0869209 L41.9750809,18.5487756 Z" id="Path" fill="#2E5BFF"></path>
                <path d="M35.1269656,23.8962312 C35.6596313,23.4418393 36.1970446,22.9930223 36.7391142,22.5498607 L51.9296358,41.1307126 C51.5170782,41.4679933 51.1081316,41.809525 50.7028626,42.1552408 L35.1269656,23.8962312 Z" id="Path" fill="#2E5BFF"></path>
                <path d="M28.7481961,29.8345972 C29.2397848,29.3354335 29.7365835,28.8414221 30.2385056,28.3526494 L46.9823448,45.5469464 C46.6003105,45.9189721 46.2221771,46.294984 45.8480118,46.674915 L28.7481961,29.8345972 Z" id="Path" fill="#2E5BFF"></path>
                <path d="M22.910728,36.3002464 C23.3571471,35.7604561 23.8091999,35.2253572 24.2668056,34.6950406 L42.4372501,50.3741651 C42.0890755,50.7776626 41.7450716,51.1848601 41.4053052,51.5956906 L22.910728,36.3002464 Z" id="Path" fill="#2E5BFF"></path>
                <path d="M17.737304,43.1297253 C18.1364417,42.5532034 18.5416085,41.9809059 18.9527303,41.4129274 L38.3941542,55.4852775 C38.0815858,55.9171012 37.7734463,56.3523408 37.4698024,56.7909297 L17.737304,43.1297253 Z" id="Path" fill="#2E5BFF"></path>
                <path d="M13.1046907,50.4841554 C13.4528705,49.8741344 13.8074485,49.2678472 14.1683579,48.665391 L34.7566909,60.9991067 C34.4825833,61.4566671 34.2131525,61.9173506 33.9484648,62.3810911 L13.1046907,50.4841554 Z" id="Path" fill="#2E5BFF"></path>
                <path d="M9.12257496,58.2271316 C9.41647435,57.5885505 9.71708356,56.9531883 10.0243442,56.3211431 L31.6089523,66.8142214 C31.3758435,67.2937338 31.1476292,67.7760653 30.9243743,68.261151 L9.12257496,58.2271316 Z" id="Path" fill="#2E5BFF"></path>
                <path d="M5.82740778,66.3003713 C6.06439281,65.6381789 6.30834115,64.9786778 6.55920325,64.321965 L28.9791105,72.8862957 C28.7889479,73.3841077 28.6038689,73.8844318 28.4239369,74.3872045 L5.82740778,66.3003713 Z" id="Path" fill="#2E5BFF"></path>
                <path d="M3.2498352,74.6401398 C3.42787895,73.9594666 3.61307671,73.2809525 3.80538804,72.6046927 L26.8901123,79.1694095 C26.744368,79.681917 26.6038673,80.196632 26.468672,80.7134929 L3.2498352,74.6401398 Z" id="Path" fill="#2E5BFF"></path>
                <path d="M25.076069,87.1836674 L1.41485926,83.165315 C1.53251589,82.4725191 1.65742776,81.7813508 1.78956367,81.0919015 L25.3605699,85.609386 C25.2603584,86.1322623 25.165505,86.6570426 25.076069,87.1836674 Z" id="Path" fill="#2E5BFF"></path>
                <path d="M0.331443043,91.8148829 C0.388265662,91.1157623 0.452365633,90.4177543 0.523720657,89.7209454 L24.3988663,92.1658218 C24.3446431,92.6953322 24.295856,93.2264526 24.2525617,93.7591263 L0.331443043,91.8148829 Z" id="Path" fill="#2E5BFF"></path>
                <path d="M0.00126817851,100.507825 C0.000415952253,100.337288 -6.37234456e-07,100.167966 7.31608358e-10,99.9896624 C5.39743545e-05,99.4586073 0.00426896669,98.9279271 0.0126387271,98.3976572 L24.0096497,98.776425 C24.0032242,99.1835125 23.9999995,99.5913772 23.9999995,99.9999951 C23.9999995,100.129369 24.0003227,100.258668 24.0009685,100.387891 L0.00126817851,100.507825 Z" id="Path" fill="#2E5BFF"></path>
                <path d="M0.415041912,109.1554 C0.351517517,108.457677 0.29525438,107.75882 0.246273724,107.058915 L24.1877193,105.38345 C24.2250539,105.91694 24.2678946,106.448912 24.3161849,106.97931 L0.415041912,109.1554 Z" id="Path" fill="#2E5BFF"></path>
                <path d="M1.57807493,117.768811 C1.45381891,117.077069 1.33681617,116.383674 1.22709683,115.688717 L24.9334644,111.945973 C25.0168863,112.474363 25.1057532,113.000943 25.2000059,113.525654 L1.57807493,117.768811 Z" id="Path" fill="#2E5BFF"></path>
                <path d="M60.6801724,121.530003 C59.5188332,121.530003 58.6370087,121.218006 58.0346724,120.594003 C57.432336,119.97 57.1095059,119.107675 57.0661724,118.007003 C57.0575057,117.773002 57.0531724,117.391673 57.0531724,116.863003 C57.0531724,116.325667 57.0575057,115.935671 57.0661724,115.693003 C57.1095059,114.600998 57.4345027,113.74084 58.0411724,113.112503 C58.6478421,112.484167 59.5274999,112.170003 60.6801724,112.170003 C61.4515096,112.170003 62.1058363,112.306502 62.6431724,112.579503 C63.1805084,112.852505 63.5878376,113.210001 63.8651724,113.652003 C64.1425071,114.094005 64.2941722,114.566334 64.3201724,115.069003 L64.3201724,115.095003 C64.3201724,115.164337 64.292006,115.222836 64.2356724,115.270503 C64.1793387,115.31817 64.116506,115.342003 64.0471724,115.342003 L63.3321724,115.342003 C63.1588382,115.342003 63.0505059,115.242338 63.0071724,115.043003 C62.8598383,114.393 62.5955076,113.935838 62.2141724,113.671503 C61.8328371,113.407169 61.3215089,113.275003 60.6801724,113.275003 C59.1894982,113.275003 58.4181726,114.102662 58.3661724,115.758003 C58.3575057,115.992004 58.3531724,116.351667 58.3531724,116.837003 C58.3531724,117.322339 58.3575057,117.690669 58.3661724,117.942003 C58.4181726,119.597345 59.1894982,120.425003 60.6801724,120.425003 C61.3215089,120.425003 61.8350038,120.292838 62.2206724,120.028503 C62.606341,119.764169 62.868505,119.307007 63.0071724,118.657003 C63.0331725,118.544336 63.0721721,118.466337 63.1241724,118.423003 C63.1761726,118.37967 63.2455053,118.358003 63.3321724,118.358003 L64.0471724,118.358003 C64.1251728,118.358003 64.1923387,118.381836 64.2486724,118.429503 C64.305006,118.47717 64.3288391,118.540003 64.3201724,118.618003 C64.2941722,119.129339 64.1425071,119.606001 63.8651724,120.048003 C63.5878376,120.490005 63.1805084,120.847502 62.6431724,121.120503 C62.1058363,121.393505 61.4515096,121.530003 60.6801724,121.530003 Z M67.5745054,121.400003 C67.4878383,121.400003 67.416339,121.371837 67.3600054,121.315503 C67.3036717,121.25917 67.2755054,121.18767 67.2755054,121.101003 L67.2755054,112.612003 C67.2755054,112.516669 67.3036717,112.440837 67.3600054,112.384503 C67.416339,112.32817 67.4878383,112.300003 67.5745054,112.300003 L70.7465054,112.300003 C71.743177,112.300003 72.5231692,112.534001 73.0865054,113.002003 C73.6498415,113.470006 73.9315054,114.145999 73.9315054,115.030003 C73.9315054,115.688673 73.769007,116.230334 73.4440054,116.655003 C73.1190037,117.079672 72.6618416,117.374336 72.0725054,117.539003 L74.0745054,120.997003 C74.1005055,121.049004 74.1135054,121.09667 74.1135054,121.140003 C74.1135054,121.209337 74.085339,121.270003 74.0290054,121.322003 C73.9726717,121.374004 73.909839,121.400003 73.8405054,121.400003 L73.2165054,121.400003 C73.0865047,121.400003 72.9846724,121.36967 72.9110054,121.309003 C72.8373383,121.248336 72.7701723,121.16167 72.7095054,121.049003 L70.8245054,117.747003 L68.5495054,117.747003 L68.5495054,121.101003 C68.5495054,121.18767 68.5191723,121.25917 68.4585054,121.315503 C68.3978384,121.371837 68.3241725,121.400003 68.2375054,121.400003 L67.5745054,121.400003 Z M70.6945054,116.642003 C71.9858452,116.642003 72.6315054,116.100342 72.6315054,115.017003 C72.6315054,113.933665 71.9858452,113.392003 70.6945054,113.392003 L68.5495054,113.392003 L68.5495054,116.642003 L70.6945054,116.642003 Z M77.3028384,121.400003 C77.2161713,121.400003 77.144672,121.371837 77.0883384,121.315503 C77.0320047,121.25917 77.0038384,121.18767 77.0038384,121.101003 L77.0038384,112.612003 C77.0038384,112.516669 77.0320047,112.440837 77.0883384,112.384503 C77.144672,112.32817 77.2161713,112.300003 77.3028384,112.300003 L82.6718384,112.300003 C82.7585055,112.300003 82.8300047,112.32817 82.8863384,112.384503 C82.942672,112.440837 82.9708384,112.516669 82.9708384,112.612003 L82.9708384,113.106003 C82.9708384,113.19267 82.9448386,113.26417 82.8928384,113.320503 C82.8408381,113.376837 82.7671722,113.405003 82.6718384,113.405003 L78.2518384,113.405003 L78.2518384,116.252003 L82.3858384,116.252003 C82.4725055,116.252003 82.5440047,116.28017 82.6003384,116.336503 C82.656672,116.392837 82.6848384,116.468669 82.6848384,116.564003 L82.6848384,117.045003 C82.6848384,117.13167 82.656672,117.20317 82.6003384,117.259503 C82.5440047,117.315837 82.4725055,117.344003 82.3858384,117.344003 L78.2518384,117.344003 L78.2518384,120.295003 L82.7758384,120.295003 C82.8711722,120.295003 82.9448381,120.321003 82.9968384,120.373003 C83.0488386,120.425004 83.0748384,120.498669 83.0748384,120.594003 L83.0748384,121.101003 C83.0748384,121.18767 83.046672,121.25917 82.9903384,121.315503 C82.9340047,121.371837 82.8625055,121.400003 82.7758384,121.400003 L77.3028384,121.400003 Z M86.3941714,121.400003 C86.3075043,121.400003 86.236005,121.371837 86.1796714,121.315503 C86.1233377,121.25917 86.0951714,121.18767 86.0951714,121.101003 L86.0951714,112.612003 C86.0951714,112.516669 86.1233377,112.440837 86.1796714,112.384503 C86.236005,112.32817 86.3075043,112.300003 86.3941714,112.300003 L89.3451714,112.300003 C90.6538446,112.300003 91.5985018,112.5925 92.1791714,113.177503 C92.7598409,113.762506 93.0631712,114.644331 93.0891714,115.823003 C93.0978381,116.074338 93.1021714,116.412334 93.1021714,116.837003 C93.1021714,117.261672 93.0978381,117.604002 93.0891714,117.864003 C93.0631712,118.687341 92.9266726,119.356834 92.6796714,119.872503 C92.4326701,120.388173 92.0448407,120.771669 91.5161714,121.023003 C90.9875021,121.274338 90.2855091,121.400003 89.4101714,121.400003 L86.3941714,121.400003 Z M89.3451714,120.295003 C89.9431744,120.295003 90.4176696,120.212671 90.7686714,120.048003 C91.1196731,119.883336 91.3753372,119.621172 91.5356714,119.261503 C91.6960055,118.901835 91.7848379,118.418673 91.8021714,117.812003 C91.8195048,117.292001 91.8281714,116.967004 91.8281714,116.837003 C91.8281714,116.698336 91.8195048,116.377672 91.8021714,115.875003 C91.7848379,115.016999 91.5811733,114.390839 91.1911714,113.996503 C90.8011694,113.602168 90.1641758,113.405003 89.2801714,113.405003 L87.3691714,113.405003 L87.3691714,120.295003 L89.3451714,120.295003 Z M96.5645044,121.400003 C96.4778373,121.400003 96.406338,121.371837 96.3500044,121.315503 C96.2936707,121.25917 96.2655044,121.18767 96.2655044,121.101003 L96.2655044,112.599003 C96.2655044,112.512336 96.2936707,112.440837 96.3500044,112.384503 C96.406338,112.32817 96.4778373,112.300003 96.5645044,112.300003 L97.2535044,112.300003 C97.3401715,112.300003 97.4116707,112.32817 97.4680044,112.384503 C97.524338,112.440837 97.5525044,112.512336 97.5525044,112.599003 L97.5525044,121.101003 C97.5525044,121.18767 97.524338,121.25917 97.4680044,121.315503 C97.4116707,121.371837 97.3401715,121.400003 97.2535044,121.400003 L96.5645044,121.400003 Z M103.315837,121.400003 C103.22917,121.400003 103.157671,121.371837 103.101337,121.315503 C103.045004,121.25917 103.016837,121.18767 103.016837,121.101003 L103.016837,113.457003 L100.520837,113.457003 C100.43417,113.457003 100.362671,113.428837 100.306337,113.372503 C100.250004,113.31617 100.221837,113.24467 100.221837,113.158003 L100.221837,112.612003 C100.221837,112.525336 100.250004,112.45167 100.306337,112.391003 C100.362671,112.330336 100.43417,112.300003 100.520837,112.300003 L106.786837,112.300003 C106.882171,112.300003 106.958004,112.32817 107.014337,112.384503 C107.070671,112.440837 107.098837,112.516669 107.098837,112.612003 L107.098837,113.158003 C107.098837,113.24467 107.068504,113.31617 107.007837,113.372503 C106.94717,113.428837 106.873504,113.457003 106.786837,113.457003 L104.303837,113.457003 L104.303837,121.101003 C104.303837,121.18767 104.273504,121.25917 104.212837,121.315503 C104.15217,121.371837 104.078504,121.400003 103.991837,121.400003 L103.315837,121.400003 Z M114.140503,121.400003 C114.053836,121.400003 113.982337,121.371837 113.926003,121.315503 C113.86967,121.25917 113.841503,121.18767 113.841503,121.101003 L113.841503,112.612003 C113.841503,112.516669 113.86967,112.440837 113.926003,112.384503 C113.982337,112.32817 114.053836,112.300003 114.140503,112.300003 L117.312503,112.300003 C118.309175,112.300003 119.089167,112.534001 119.652503,113.002003 C120.21584,113.470006 120.497503,114.145999 120.497503,115.030003 C120.497503,115.688673 120.335005,116.230334 120.010003,116.655003 C119.685002,117.079672 119.22784,117.374336 118.638503,117.539003 L120.640503,120.997003 C120.666503,121.049004 120.679503,121.09667 120.679503,121.140003 C120.679503,121.209337 120.651337,121.270003 120.595003,121.322003 C120.53867,121.374004 120.475837,121.400003 120.406503,121.400003 L119.782503,121.400003 C119.652503,121.400003 119.55067,121.36967 119.477003,121.309003 C119.403336,121.248336 119.33617,121.16167 119.275503,121.049003 L117.390503,117.747003 L115.115503,117.747003 L115.115503,121.101003 C115.115503,121.18767 115.08517,121.25917 115.024503,121.315503 C114.963836,121.371837 114.89017,121.400003 114.803503,121.400003 L114.140503,121.400003 Z M117.260503,116.642003 C118.551843,116.642003 119.197503,116.100342 119.197503,115.017003 C119.197503,113.933665 118.551843,113.392003 117.260503,113.392003 L115.115503,113.392003 L115.115503,116.642003 L117.260503,116.642003 Z M123.868836,121.400003 C123.782169,121.400003 123.71067,121.371837 123.654336,121.315503 C123.598003,121.25917 123.569836,121.18767 123.569836,121.101003 L123.569836,112.599003 C123.569836,112.512336 123.598003,112.440837 123.654336,112.384503 C123.71067,112.32817 123.782169,112.300003 123.868836,112.300003 L124.557836,112.300003 C124.644503,112.300003 124.716003,112.32817 124.772336,112.384503 C124.82867,112.440837 124.856836,112.512336 124.856836,112.599003 L124.856836,121.101003 C124.856836,121.18767 124.82867,121.25917 124.772336,121.315503 C124.716003,121.371837 124.644503,121.400003 124.557836,121.400003 L123.868836,121.400003 Z M131.257169,121.530003 C130.537832,121.530003 129.916005,121.417338 129.391669,121.192003 C128.867333,120.966669 128.466504,120.669838 128.189169,120.301503 C127.911835,119.933168 127.764503,119.536672 127.747169,119.112003 C127.747169,119.04267 127.775336,118.979837 127.831669,118.923503 C127.888003,118.86717 127.955169,118.839003 128.033169,118.839003 L128.696169,118.839003 C128.860837,118.839003 128.973502,118.925669 129.034169,119.099003 C129.11217,119.463005 129.335334,119.775002 129.703669,120.035003 C130.072005,120.295005 130.589833,120.425003 131.257169,120.425003 C131.976506,120.425003 132.518168,120.297171 132.882169,120.041503 C133.246171,119.785835 133.428169,119.428339 133.428169,118.969003 C133.428169,118.674335 133.339337,118.436004 133.161669,118.254003 C132.984002,118.072002 132.721838,117.911671 132.375169,117.773003 C132.028501,117.634336 131.508506,117.461004 130.815169,117.253003 C130.139166,117.062336 129.601838,116.858671 129.203169,116.642003 C128.804501,116.425336 128.505504,116.156672 128.306169,115.836003 C128.106835,115.515335 128.007169,115.112339 128.007169,114.627003 C128.007169,114.159001 128.135001,113.738672 128.390669,113.366003 C128.646337,112.993335 129.0125,112.700838 129.489169,112.488503 C129.965838,112.276169 130.533499,112.170003 131.192169,112.170003 C131.868173,112.170003 132.448834,112.289169 132.934169,112.527503 C133.419505,112.765838 133.787835,113.067001 134.039169,113.431003 C134.290504,113.795005 134.424836,114.159001 134.442169,114.523003 C134.442169,114.592337 134.418336,114.653003 134.370669,114.705003 C134.323002,114.757004 134.255836,114.783003 134.169169,114.783003 L133.480169,114.783003 C133.298168,114.783003 133.185503,114.700671 133.142169,114.536003 C133.090169,114.172001 132.886504,113.870838 132.531169,113.632503 C132.175834,113.394169 131.729505,113.275003 131.192169,113.275003 C130.602833,113.275003 130.139171,113.387669 129.801169,113.613003 C129.463168,113.838338 129.294169,114.172001 129.294169,114.614003 C129.294169,114.908671 129.374335,115.151336 129.534669,115.342003 C129.695003,115.532671 129.939834,115.699503 130.269169,115.842503 C130.598504,115.985504 131.0795,116.148002 131.712169,116.330003 C132.44884,116.529338 133.029501,116.735169 133.454169,116.947503 C133.878838,117.159838 134.195168,117.424168 134.403169,117.740503 C134.61117,118.056838 134.715169,118.457667 134.715169,118.943003 C134.715169,119.749007 134.403172,120.381668 133.779169,120.841003 C133.155166,121.300339 132.314508,121.530003 131.257169,121.530003 Z M137.930502,121.400003 C137.843835,121.400003 137.772336,121.371837 137.716002,121.315503 C137.659669,121.25917 137.631502,121.18767 137.631502,121.101003 L137.631502,112.612003 C137.631502,112.516669 137.659669,112.440837 137.716002,112.384503 C137.772336,112.32817 137.843835,112.300003 137.930502,112.300003 L138.580502,112.300003 C138.675836,112.300003 138.751669,112.32817 138.808002,112.384503 C138.864336,112.440837 138.892502,112.516669 138.892502,112.612003 L138.892502,115.836003 L142.363502,112.508003 C142.50217,112.369336 142.671168,112.300003 142.870502,112.300003 L143.572502,112.300003 C143.641836,112.300003 143.702502,112.326003 143.754502,112.378003 C143.806503,112.430004 143.832502,112.49067 143.832502,112.560003 C143.832502,112.629337 143.815169,112.68567 143.780502,112.729003 L139.763502,116.655003 L144.040502,120.958003 C144.083836,121.010004 144.105502,121.07067 144.105502,121.140003 C144.105502,121.209337 144.079503,121.270003 144.027502,121.322003 C143.975502,121.374004 143.914836,121.400003 143.845502,121.400003 L143.117502,121.400003 C142.926835,121.400003 142.757836,121.326337 142.610502,121.179003 L138.892502,117.526003 L138.892502,121.101003 C138.892502,121.18767 138.862169,121.25917 138.801502,121.315503 C138.740835,121.371837 138.667169,121.400003 138.580502,121.400003 L137.930502,121.400003 Z M80.9536714,136.530003 C80.2343344,136.530003 79.6125073,136.417338 79.0881714,136.192003 C78.5638354,135.966669 78.1630061,135.669838 77.8856714,135.301503 C77.6083366,134.933168 77.4610048,134.536672 77.4436714,134.112003 C77.4436714,134.04267 77.4718377,133.979837 77.5281714,133.923503 C77.584505,133.86717 77.651671,133.839003 77.7296714,133.839003 L78.3926714,133.839003 C78.5573389,133.839003 78.6700044,133.925669 78.7306714,134.099003 C78.8086718,134.463005 79.0318362,134.775002 79.4001714,135.035003 C79.7685065,135.295005 80.2863347,135.425003 80.9536714,135.425003 C81.6730083,135.425003 82.2146695,135.297171 82.5786714,135.041503 C82.9426732,134.785835 83.1246714,134.428339 83.1246714,133.969003 C83.1246714,133.674335 83.0358389,133.436004 82.8581714,133.254003 C82.6805038,133.072002 82.4183398,132.911671 82.0716714,132.773003 C81.725003,132.634336 81.2050082,132.461004 80.5116714,132.253003 C79.835668,132.062336 79.29834,131.858671 78.8996714,131.642003 C78.5010027,131.425336 78.2020057,131.156672 78.0026714,130.836003 C77.803337,130.515335 77.7036714,130.112339 77.7036714,129.627003 C77.7036714,129.159001 77.8315034,128.738672 78.0871714,128.366003 C78.3428393,127.993335 78.7090023,127.700838 79.1856714,127.488503 C79.6623404,127.276169 80.2300014,127.170003 80.8886714,127.170003 C81.5646747,127.170003 82.1453356,127.289169 82.6306714,127.527503 C83.1160071,127.765838 83.4843368,128.067001 83.7356714,128.431003 C83.987006,128.795005 84.1213379,129.159001 84.1386714,129.523003 C84.1386714,129.592337 84.1148383,129.653003 84.0671714,129.705003 C84.0195045,129.757004 83.9523385,129.783003 83.8656714,129.783003 L83.1766714,129.783003 C82.9946705,129.783003 82.8820049,129.700671 82.8386714,129.536003 C82.7866711,129.172001 82.5830065,128.870838 82.2276714,128.632503 C81.8723363,128.394169 81.4260074,128.275003 80.8886714,128.275003 C80.2993351,128.275003 79.8356731,128.387669 79.4976714,128.613003 C79.1596697,128.838338 78.9906714,129.172001 78.9906714,129.614003 C78.9906714,129.908671 79.0708372,130.151336 79.2311714,130.342003 C79.3915055,130.532671 79.6363364,130.699503 79.9656714,130.842503 C80.2950063,130.985504 80.7760015,131.148002 81.4086714,131.330003 C82.1453417,131.529338 82.7260026,131.735169 83.1506714,131.947503 C83.5753402,132.159838 83.8916703,132.424168 84.0996714,132.740503 C84.3076724,133.056838 84.4116714,133.457667 84.4116714,133.943003 C84.4116714,134.749007 84.0996745,135.381668 83.4756714,135.841003 C82.8516682,136.300339 82.01101,136.530003 80.9536714,136.530003 Z M90.6040044,136.530003 C89.4426652,136.530003 88.5608407,136.218006 87.9585044,135.594003 C87.356168,134.97 87.0333379,134.107675 86.9900044,133.007003 C86.9813377,132.773002 86.9770044,132.391673 86.9770044,131.863003 C86.9770044,131.325667 86.9813377,130.935671 86.9900044,130.693003 C87.0333379,129.600998 87.3583347,128.74084 87.9650044,128.112503 C88.5716741,127.484167 89.4513319,127.170003 90.6040044,127.170003 C91.3753416,127.170003 92.0296683,127.306502 92.5670044,127.579503 C93.1043404,127.852505 93.5116696,128.210001 93.7890044,128.652003 C94.0663391,129.094005 94.2180042,129.566334 94.2440044,130.069003 L94.2440044,130.095003 C94.2440044,130.164337 94.215838,130.222836 94.1595044,130.270503 C94.1031707,130.31817 94.040338,130.342003 93.9710044,130.342003 L93.2560044,130.342003 C93.0826702,130.342003 92.9743379,130.242338 92.9310044,130.043003 C92.7836703,129.393 92.5193396,128.935838 92.1380044,128.671503 C91.7566691,128.407169 91.2453409,128.275003 90.6040044,128.275003 C89.1133302,128.275003 88.3420046,129.102662 88.2900044,130.758003 C88.2813377,130.992004 88.2770044,131.351667 88.2770044,131.837003 C88.2770044,132.322339 88.2813377,132.690669 88.2900044,132.942003 C88.3420046,134.597345 89.1133302,135.425003 90.6040044,135.425003 C91.2453409,135.425003 91.7588358,135.292838 92.1445044,135.028503 C92.530173,134.764169 92.792337,134.307007 92.9310044,133.657003 C92.9570045,133.544336 92.9960041,133.466337 93.0480044,133.423003 C93.1000046,133.37967 93.1693373,133.358003 93.2560044,133.358003 L93.9710044,133.358003 C94.0490048,133.358003 94.1161707,133.381836 94.1725044,133.429503 C94.228838,133.47717 94.2526711,133.540003 94.2440044,133.618003 C94.2180042,134.129339 94.0663391,134.606001 93.7890044,135.048003 C93.5116696,135.490005 93.1043404,135.847502 92.5670044,136.120503 C92.0296683,136.393505 91.3753416,136.530003 90.6040044,136.530003 Z M100.475337,136.530003 C99.3399984,136.530003 98.4625071,136.233173 97.8428374,135.639503 C97.2231676,135.045834 96.8960042,134.151009 96.8613374,132.955003 C96.8526707,132.695002 96.8483374,132.326672 96.8483374,131.850003 C96.8483374,131.373334 96.8526707,131.009338 96.8613374,130.758003 C96.8960042,129.587997 97.2340008,128.697506 97.8753374,128.086503 C98.5166739,127.4755 99.3833319,127.170003 100.475337,127.170003 C101.558676,127.170003 102.421001,127.4755 103.062337,128.086503 C103.703674,128.697506 104.041671,129.587997 104.076337,130.758003 C104.093671,131.260672 104.102337,131.624669 104.102337,131.850003 C104.102337,132.066671 104.093671,132.435001 104.076337,132.955003 C104.041671,134.151009 103.714507,135.045834 103.094837,135.639503 C102.475168,136.233173 101.60201,136.530003 100.475337,136.530003 Z M100.475337,135.425003 C101.160007,135.425003 101.706002,135.217005 102.113337,134.801003 C102.520673,134.385001 102.741671,133.748008 102.776337,132.890003 C102.793671,132.370001 102.802337,132.023337 102.802337,131.850003 C102.802337,131.659336 102.793671,131.312672 102.776337,130.810003 C102.741671,129.951999 102.518506,129.315005 102.106837,128.899003 C101.695169,128.483001 101.151341,128.275003 100.475337,128.275003 C99.7906673,128.275003 99.2425061,128.483001 98.8308374,128.899003 C98.4191686,129.315005 98.1960042,129.951999 98.1613374,130.810003 C98.1526707,131.061338 98.1483374,131.408001 98.1483374,131.850003 C98.1483374,132.283339 98.1526707,132.630002 98.1613374,132.890003 C98.1960042,133.748008 98.4191686,134.385001 98.8308374,134.801003 C99.2425061,135.217005 99.7906673,135.425003 100.475337,135.425003 Z M107.51267,136.400003 C107.426003,136.400003 107.354504,136.371837 107.29817,136.315503 C107.241837,136.25917 107.21367,136.18767 107.21367,136.101003 L107.21367,127.612003 C107.21367,127.516669 107.241837,127.440837 107.29817,127.384503 C107.354504,127.32817 107.426003,127.300003 107.51267,127.300003 L110.68467,127.300003 C111.681342,127.300003 112.461334,127.534001 113.02467,128.002003 C113.588007,128.470006 113.86967,129.145999 113.86967,130.030003 C113.86967,130.688673 113.707172,131.230334 113.38217,131.655003 C113.057169,132.079672 112.600007,132.374336 112.01067,132.539003 L114.01267,135.997003 C114.03867,136.049004 114.05167,136.09667 114.05167,136.140003 C114.05167,136.209337 114.023504,136.270003 113.96717,136.322003 C113.910837,136.374004 113.848004,136.400003 113.77867,136.400003 L113.15467,136.400003 C113.02467,136.400003 112.922837,136.36967 112.84917,136.309003 C112.775503,136.248336 112.708337,136.16167 112.64767,136.049003 L110.76267,132.747003 L108.48767,132.747003 L108.48767,136.101003 C108.48767,136.18767 108.457337,136.25917 108.39667,136.315503 C108.336003,136.371837 108.262337,136.400003 108.17567,136.400003 L107.51267,136.400003 Z M110.63267,131.642003 C111.92401,131.642003 112.56967,131.100342 112.56967,130.017003 C112.56967,128.933665 111.92401,128.392003 110.63267,128.392003 L108.48767,128.392003 L108.48767,131.642003 L110.63267,131.642003 Z M117.241003,136.400003 C117.154336,136.400003 117.082837,136.371837 117.026503,136.315503 C116.97017,136.25917 116.942003,136.18767 116.942003,136.101003 L116.942003,127.612003 C116.942003,127.516669 116.97017,127.440837 117.026503,127.384503 C117.082837,127.32817 117.154336,127.300003 117.241003,127.300003 L122.610003,127.300003 C122.69667,127.300003 122.76817,127.32817 122.824503,127.384503 C122.880837,127.440837 122.909003,127.516669 122.909003,127.612003 L122.909003,128.106003 C122.909003,128.19267 122.883004,128.26417 122.831003,128.320503 C122.779003,128.376837 122.705337,128.405003 122.610003,128.405003 L118.190003,128.405003 L118.190003,131.252003 L122.324003,131.252003 C122.41067,131.252003 122.48217,131.28017 122.538503,131.336503 C122.594837,131.392837 122.623003,131.468669 122.623003,131.564003 L122.623003,132.045003 C122.623003,132.13167 122.594837,132.20317 122.538503,132.259503 C122.48217,132.315837 122.41067,132.344003 122.324003,132.344003 L118.190003,132.344003 L118.190003,135.295003 L122.714003,135.295003 C122.809337,135.295003 122.883003,135.321003 122.935003,135.373003 C122.987004,135.425004 123.013003,135.498669 123.013003,135.594003 L123.013003,136.101003 C123.013003,136.18767 122.984837,136.25917 122.928503,136.315503 C122.87217,136.371837 122.80067,136.400003 122.714003,136.400003 L117.241003,136.400003 Z" id="CREDITRISKSCORE" fill="#8798AD"></path>
            </g>
        </g>
    </g>
</svg>