<?xml version="1.0" encoding="UTF-8"?>
<svg width="30px" height="30px" viewBox="0 0 30 30" version="1.1" xmlns="http://www.w3.org/2000/svg" xmlns:xlink="http://www.w3.org/1999/xlink">
    <!-- Generator: Sketch 55 (78076) - https://sketchapp.com -->
    <title>Artboard Copy</title>
    <desc>Created with Sketch.</desc>
    <defs>
        <polygon id="path-1" points="1.83366077e-05 0 30.0000236 0 30.0000236 29.9999656 1.83366077e-05 29.9999656"></polygon>
    </defs>
    <g id="Artboard-Copy" stroke="none" stroke-width="1" fill="none" fill-rule="evenodd">
        <g id="Group-8">
            <g id="Group-3">
                <mask id="mask-2" fill="white">
                    <use xlink:href="#path-1"></use>
                </mask>
                <g id="Clip-2"></g>
                <path d="M10.3017165,6.93598819 C10.215378,7.24331102 10.1478189,7.46500394 10.0907717,7.68941339 C9.79844882,8.83803543 9.7993937,8.83815354 10.9499055,9.17630315 C11.7045118,9.39811417 11.871874,9.67827165 11.6846693,10.4347677 C11.1806929,12.4715787 10.6678583,14.5062638 10.1680157,16.5441378 C9.80340945,18.0310276 9.8593937,17.9903976 8.42990551,17.6459882 C8.26986614,17.6074843 7.96525984,17.6862638 7.90407874,17.8030748 C7.61541732,18.3534685 7.38829134,18.9361063 7.1005748,19.595752 C8.2509685,19.8964606 9.31856693,20.1755551 10.4228976,20.4643346 C10.2995906,20.996185 10.197189,21.4532717 10.0874646,21.9084685 C9.7082126,23.4812244 9.58915748,23.1216969 11.1055748,23.5545709 C11.501126,23.6674843 11.6721496,23.5574055 11.7600236,23.1537047 C11.916874,22.4333504 12.1248661,21.7242165 12.3217559,20.9711457 C12.7260472,21.0756732 13.0554567,21.1608307 13.4107323,21.2526024 C13.2790394,21.8038228 13.1621102,22.2772087 13.0529764,22.7523661 C12.7582913,24.0364606 12.4564016,23.8799646 14.0228976,24.2844921 C14.4836457,24.4035472 14.6604567,24.3011457 14.7578976,23.8535079 C14.9151024,23.1316181 15.1189606,22.4198858 15.295063,21.7346102 C16.1556142,21.791185 16.9362047,21.8986654 17.7140787,21.882248 C19.4986063,21.8444528 20.6686063,20.912563 21.2208898,19.1784685 C21.7158898,17.624374 21.4261654,16.2867756 19.970811,15.3870118 C19.9534488,15.3761457 19.9610079,15.3248858 19.9555748,15.2813031 C20.834315,14.9329961 21.4006535,14.2957913 21.658252,13.3850433 C22.1336457,11.7051614 21.4880551,10.4148071 19.7226614,9.50961024 C19.325811,9.3061063 18.7168346,9.18551575 18.590811,8.87193307 C18.4458898,8.51146063 18.7242756,7.97783858 18.8275039,7.52146063 C19.160811,6.04756299 19.4084882,6.31815354 17.7746693,5.87677559 C17.7557717,5.87169685 17.7360472,5.8699252 17.7166772,5.86614567 C17.4262441,5.80898031 17.2375039,5.86472835 17.1675827,6.20996457 C17.0588031,6.74772047 16.8552992,7.2684685 16.7723858,7.80882283 C16.6875827,8.3622874 16.432937,8.45394094 15.9691181,8.25480709 C15.8338819,8.19669685 15.6909685,8.15677559 15.5280945,8.10043701 C15.6541181,7.57331102 15.7704567,7.0988622 15.8810079,6.62311417 C16.1834882,5.32236614 16.3601811,5.5768937 15.0022677,5.18004331 C14.4873071,5.02957087 14.2154173,5.10716929 14.113252,5.69642126 C13.9946693,6.37968898 13.777937,7.04606693 13.597937,7.74220866 C12.4665591,7.46547638 11.4234094,7.21035827 10.3017165,6.93598819 M15.0169134,29.9999646 C6.66959055,30.0030354 0.00675590551,23.3619331 2.36220472e-05,15.0318543 C-0.00682677165,6.65618504 6.64620472,-0.00546850394 15.0125433,-3.54330709e-05 C23.3504173,0.0053976378 29.9989606,6.65831102 30.0000236,14.9978386 C30.0013228,23.3391378 23.3519528,29.9970118 15.0169134,29.9999646" id="Fill-1" fill="#000000" mask="url(#mask-2)"></path>
            </g>
            <path d="M13.8329346,15 C14.9534192,15.3950841 16.0051384,15.6834573 16.9749245,16.1312039 C17.9356883,16.5746773 18.2183088,17.4048043 17.8344911,18.1400002 C17.4220211,18.9300528 16.613297,19.0284485 15.8579758,18.9942641 C14.9986531,18.9554601 14.1456705,18.7358022 13.2984183,18.5589902 C13.1707636,18.5323125 12.9775135,18.2880556 13.0021422,18.1841165 C13.2398947,17.1791409 13.5176383,16.1827115 13.8329346,15" id="Fill-4" fill="#000000"></path>
            <path d="M14,13.5173452 C14.2603998,12.2985112 14.5000137,11.1768982 14.7515218,10 C15.7269527,10.2067123 16.636793,10.4479441 17.4189161,11.1051624 C17.873432,11.487034 18.085678,12.0022641 17.9680074,12.6788996 C17.8466414,13.3783234 17.490858,13.7662629 16.9015808,13.9172856 C15.9200296,14.1689002 15.0148085,13.7916131 14,13.5173452" id="Fill-6" fill="#000000"></path>
        </g>
    </g>
</svg>