<?xml version="1.0" encoding="UTF-8"?>
<svg width="44px" height="44px" viewBox="0 0 44 44" version="1.1" xmlns="http://www.w3.org/2000/svg" xmlns:xlink="http://www.w3.org/1999/xlink">
    <!-- Generator: Sketch 54.1 (76490) - https://sketchapp.com -->
    <title>Artboard</title>
    <desc>Created with Sketch.</desc>
    <g id="Artboard" stroke="none" stroke-width="1" fill="none" fill-rule="evenodd">
        <path d="M13,31 L31,31 L31,27 L13,27 L13,31 Z M11,16.7142857 C11,15.6891429 11.8213333,14.8571429 12.8333333,14.8571429 C14.2083333,14.8571429 15.2735,16.4227143 14.2981667,17.823 C13.8068333,18.5287143 13.926,18.9521429 14.2578333,19.448 C14.9581667,20.4935714 15.9738333,21.3571429 17.4166667,21.3571429 C19.7285,21.3571429 20.9495,19.422 21.2025,17.784 C21.2905,17.2138571 21.34,16.7867143 20.8028333,16.2574286 C20.4343333,15.8952857 20.1666667,15.418 20.1666667,14.8571429 C20.1666667,13.832 20.988,13 22,13 C23.012,13 23.8333333,13.832 23.8333333,14.8571429 C23.8333333,15.418 23.5656667,15.8952857 23.1953333,16.2574286 C22.6581667,16.7867143 22.7076667,17.2138571 22.7956667,17.784 C23.0505,19.422 24.2715,21.3571429 26.5815,21.3571429 C28.0243333,21.3571429 29.04,20.4935714 29.7421667,19.4461429 C30.074,18.9521429 30.1913333,18.5268571 29.7018333,17.8211429 C28.7265,16.4227143 29.7916667,14.8571429 31.1666667,14.8571429 C32.1786667,14.8571429 33,15.6891429 33,16.7142857 C33,17.4534286 32.5746667,18.1015714 31.9513333,18.3931429 C31.196,18.746 31.1666667,19.6151429 31.1666667,20.4081429 L31.1666667,26 L12.8333333,26 L12.8333333,20.4081429 C12.8333333,19.6151429 12.804,18.7441429 12.0486667,18.3931429 C11.4253333,18.1015714 11,17.4534286 11,16.7142857 L11,16.7142857 Z M22,0 C9.8505,0 0,9.8505 0,22 C0,34.1495 9.8505,44 22,44 C34.1495,44 44,34.1495 44,22 C44,9.8505 34.1495,0 22,0 L22,0 Z M22.5,4 C32.7009,4 41,12.2991 41,22.5 C41,32.7009 32.7009,41 22.5,41 C12.2991,41 4,32.7009 4,22.5 C4,12.2991 12.2991,4 22.5,4 L22.5,4 Z" id="Fill-1" fill="#2E5BFF"></path>
    </g>
</svg>