<?xml version="1.0" encoding="UTF-8"?>
<svg width="30px" height="25px" viewBox="0 0 30 25" version="1.1" xmlns="http://www.w3.org/2000/svg" xmlns:xlink="http://www.w3.org/1999/xlink">
    <!-- Generator: Sketch 55 (78076) - https://sketchapp.com -->
    <title>Artboard</title>
    <desc>Created with Sketch.</desc>
    <defs>
        <polygon id="path-1" points="0.0951396078 0.0352272727 25.9510588 0.0352272727 25.9510588 24.9999885 0.0951396078 24.9999885"></polygon>
    </defs>
    <g id="Artboard" stroke="none" stroke-width="1" fill="none" fill-rule="evenodd">
        <g id="Group-6">
            <g id="Group-3" transform="translate(4.000000, 0.000000)">
                <mask id="mask-2" fill="white">
                    <use xlink:href="#path-1"></use>
                </mask>
                <g id="Clip-2"></g>
                <path d="M3.50786902,5.22772727 C3.55385333,4.94818182 3.59310824,4.69632231 3.63715529,4.44528926 C3.87951608,3.06481405 4.12564941,1.68485537 4.36342196,0.303450413 C4.39717098,0.107479339 4.47639451,0.0360950413 4.67990824,0.0365082645 C8.58786118,0.0441528926 12.496018,0.0181198347 16.4036651,0.0584090909 C18.2127553,0.077107438 19.9913592,0.370909091 21.6628024,1.13475207 C23.8194769,2.12049587 25.1377278,3.7996281 25.6655788,6.12721074 C26.0044965,7.62090909 26.0052102,9.1318595 25.8561435,10.6445661 C25.6698612,12.5336157 25.3168729,14.3902273 24.6912416,16.1853719 C23.9659945,18.2656405 22.9308886,20.1586157 21.3403004,21.6949793 C19.5274376,23.4461157 17.3474141,24.4502479 14.8786376,24.7717355 C13.7368808,24.9203926 12.5772808,24.9770041 11.4251239,24.9852686 C7.78063765,25.0113017 4.13594745,24.994876 0.491359216,24.994876 L0.0951396078,24.994876 C0.127563137,24.773905 0.150912157,24.582376 0.184253333,24.3927066 C0.435892549,22.9613017 0.696606275,21.5315496 0.936214118,20.0981818 C0.982198431,19.8230785 1.11464549,19.7820661 1.35007294,19.7824793 C4.5273749,19.7879545 7.70477882,19.7858884 10.8820808,19.7863017 C12.03332,19.786405 13.169469,19.6697727 14.2865514,19.372562 C16.6521435,18.7431198 18.1634063,17.2240083 18.8655082,14.8666736 C19.3178063,13.3481818 19.6926141,11.8080992 19.7737749,10.2187397 C19.8355631,9.01057851 19.6683475,7.84115702 18.8373671,6.87907025 C18.3718141,6.34022727 17.7779945,5.99694215 17.119022,5.76326446 C16.0143788,5.37142562 14.8668102,5.26171488 13.7067004,5.25913223 C10.4360024,5.25200413 7.16520235,5.25231405 3.89450431,5.24859504 C3.77826902,5.24838843 3.66223765,5.23630165 3.50786902,5.22772727" id="Fill-1" fill="#000000" mask="url(#mask-2)"></path>
            </g>
            <path d="M15,10.0046507 C14.8487803,10.6633125 14.7175574,11.2652972 14.5708146,11.8635232 C14.4766007,12.2471079 14.3796013,12.6319785 14.2490748,13.0042871 C13.8301365,14.1991565 12.9412233,14.8052955 11.7066935,14.9489172 C11.3951013,14.9852183 11.0789327,14.9974835 10.7648534,14.9976814 C7.30142465,15.0010444 3.83799594,14.9997585 0.374567233,14.9997585 L0,14.9997585 C0.0102471248,14.890064 0.00845636516,14.8099444 0.0261649887,14.7343749 C0.211309642,13.9487087 0.376059533,13.1574045 0.591846074,12.3801459 C1.02839349,10.8074288 2.03937682,10.03838 3.69085519,10.0089039 C4.65995463,9.99169307 5.629651,10.0047496 6.59914839,10.0046507 C9.26708186,10.0045518 11.9351148,10.0046507 14.6031478,10.0046507 L15,10.0046507 Z" id="Fill-4" fill="#000000"></path>
        </g>
    </g>
</svg>