<?xml version="1.0" encoding="UTF-8"?>
<svg width="31px" height="31px" viewBox="0 0 31 31" version="1.1" xmlns="http://www.w3.org/2000/svg" xmlns:xlink="http://www.w3.org/1999/xlink">
    <!-- Generator: Sketch 55 (78076) - https://sketchapp.com -->
    <title>Artboard</title>
    <desc>Created with Sketch.</desc>
    <defs>
        <polygon id="path-1" points="5.45454545e-05 0.14336 17.8750909 0.14336 17.8750909 20.7212384 5.45454545e-05 20.7212384"></polygon>
    </defs>
    <g id="Artboard" stroke="none" stroke-width="1" fill="none" fill-rule="evenodd">
        <g id="Group-6" transform="translate(7.000000, 0.000000)">
            <g id="Group-3">
                <mask id="mask-2" fill="white">
                    <use xlink:href="#path-1"></use>
                </mask>
                <g id="Clip-2"></g>
                <path d="M5.45454545e-05,15.457372 C2.9976,10.322172 5.93296364,5.293652 8.93950909,0.143332 C11.9092364,5.238772 14.8500545,10.284652 17.8751455,15.475012 C14.9834182,17.238172 12.1593273,18.982572 9.30087273,20.664812 C9.05187273,20.811252 8.52005455,20.647172 8.21296364,20.463212 C5.51269091,18.846212 2.83369091,17.191412 5.45454545e-05,15.457372" id="Fill-1" fill="#000000" mask="url(#mask-2)"></path>
            </g>
            <path d="M0.158803548,18 C2.59298924,19.5110774 5.04802793,20.9869282 7.44906272,22.5549317 C8.19602755,23.0427488 8.73606655,23.0745935 9.49452727,22.5763494 C11.9099987,20.9897464 14.3792068,19.4944505 17,18.1104704 C14.1966094,22.3692174 11.3932188,26.6279644 8.51523872,31 C5.65169529,26.6879905 2.82584764,22.4326252 0,18.1769781 C0.0529345159,18.1180793 0.105869032,18.0588988 0.158803548,18" id="Fill-4" fill="#000000"></path>
        </g>
    </g>
</svg>