<?xml version="1.0" encoding="UTF-8"?>
<svg width="20px" height="20px" viewBox="0 0 20 20" version="1.1" xmlns="http://www.w3.org/2000/svg" xmlns:xlink="http://www.w3.org/1999/xlink">
    <!-- Generator: Sketch 54.1 (76490) - https://sketchapp.com -->
    <title>Artboard Copy</title>
    <desc>Created with Sketch.</desc>
    <g id="Artboard-Copy" stroke="none" stroke-width="1" fill="none" fill-rule="evenodd">
        <g id="help-circle" fill="#BFC5D2">
            <path d="M10,20 C15.5228475,20 20,15.5228475 20,10 C20,4.4771525 15.5228475,0 10,0 C4.4771525,0 0,4.4771525 0,10 C0,15.5228475 4.4771525,20 10,20 Z M10,18.1818182 C5.48130659,18.1818182 1.81818182,14.5186934 1.81818182,10 C1.81818182,5.48130659 5.48130659,1.81818182 10,1.81818182 C14.5186934,1.81818182 18.1818182,5.48130659 18.1818182,10 C18.1818182,14.5186934 14.5186934,18.1818182 10,18.1818182 Z" id="Oval" fill-rule="nonzero"></path>
            <path d="M8.21212222,7.57440321 C8.50632639,6.73806651 9.36083957,6.23586159 10.2346533,6.38574388 C11.1084671,6.53562617 11.7467764,7.29388983 11.7454556,8.18046382 C11.7454545,8.60934099 11.4119893,9.05396126 10.7866362,9.47086337 C10.5349488,9.63865493 10.2597403,9.7854328 9.9841923,9.90789859 C9.82100109,9.98042802 9.69876408,10.0269945 9.63979294,10.0466515 C9.16348083,10.2054222 8.90606266,10.7202586 9.06483337,11.1965707 C9.22360407,11.6728828 9.73844041,11.930301 10.2147525,11.7715303 C10.6256894,11.6345513 11.2052557,11.3769663 11.795182,10.9836821 C12.8743743,10.2642206 13.5636364,9.34520446 13.5636364,8.18181818 C13.566277,6.41002458 12.2896584,4.89349725 10.5420309,4.59373267 C8.79440338,4.29396809 7.08537702,5.29837793 6.49696869,6.97105134 C6.33035767,7.44467791 6.57924295,7.96369302 7.05286952,8.13030404 C7.52649609,8.29691506 8.0455112,8.04802978 8.21212222,7.57440321 Z" id="Path" fill-rule="nonzero"></path>
            <circle id="Oval" cx="10" cy="14.5454545" r="1"></circle>
        </g>
    </g>
</svg>