<?xml version="1.0" encoding="UTF-8"?>
<svg width="20px" height="20px" viewBox="0 0 20 20" version="1.1" xmlns="http://www.w3.org/2000/svg" xmlns:xlink="http://www.w3.org/1999/xlink">
    <!-- Generator: Sketch 54.1 (76490) - https://sketchapp.com -->
    <title>Artboard</title>
    <desc>Created with Sketch.</desc>
    <g id="Artboard" stroke="none" stroke-width="1" fill="none" fill-rule="evenodd">
        <g id="home" transform="translate(2.000000, 1.000000)" fill="#BFC5D2" fill-rule="nonzero">
            <path d="M-0.909090909,6.3 C-0.909090909,6.02138747 -0.781332299,5.75815956 -0.56244418,5.58578517 L7.43755582,-0.714214832 C7.76750473,-0.974049602 8.23249527,-0.974049602 8.56244418,-0.714214832 L16.5624442,5.58578517 C16.7813323,5.75815956 16.9090909,6.02138747 16.9090909,6.3 L16.9090909,16.2 C16.9090909,17.693679 15.7086841,18.9090909 14.2222222,18.9090909 L1.77777778,18.9090909 C0.291315885,18.9090909 -0.909090909,17.693679 -0.909090909,16.2 L-0.909090909,6.3 Z M0.909090909,6.74123053 L0.909090909,16.2 C0.909090909,16.6945461 1.30056056,17.0909091 1.77777778,17.0909091 L14.2222222,17.0909091 C14.6994394,17.0909091 15.0909091,16.6945461 15.0909091,16.2 L15.0909091,6.74123053 L8,1.15713962 L0.909090909,6.74123053 Z" id="Path"></path>
            <path d="M6.24242424,9.90909091 L9.75757576,9.90909091 L9.75757576,18 C9.75757576,18.502077 10.1645896,18.9090909 10.6666667,18.9090909 C11.1687437,18.9090909 11.5757576,18.502077 11.5757576,18 L11.5757576,9 C11.5757576,8.49792295 11.1687437,8.09090909 10.6666667,8.09090909 L5.33333333,8.09090909 C4.83125629,8.09090909 4.42424242,8.49792295 4.42424242,9 L4.42424242,18 C4.42424242,18.502077 4.83125629,18.9090909 5.33333333,18.9090909 C5.83541038,18.9090909 6.24242424,18.502077 6.24242424,18 L6.24242424,9.90909091 Z" id="Path"></path>
        </g>
    </g>
</svg>