<?xml version="1.0" encoding="UTF-8"?>
<svg width="200px" height="47px" viewBox="0 0 200 47" version="1.1" xmlns="http://www.w3.org/2000/svg" xmlns:xlink="http://www.w3.org/1999/xlink">
    <!-- Generator: Sketch 54.1 (76490) - https://sketchapp.com -->
    <title>SafeName Logo</title>
    <desc>Created with Sketch.</desc>
    <defs>
        <polygon id="path-1" points="0 0.996 17.3507657 0.996 17.3507657 22.3504 0 22.3504"></polygon>
        <polygon id="path-3" points="0.434262857 0.996 17.7852343 0.996 17.7852343 22.3504 0.434262857 22.3504"></polygon>
        <polygon id="path-5" points="0 48.0042 199.3032 48.0042 199.3032 1.0002 0 1.0002"></polygon>
    </defs>
    <g id="Page-1" stroke="none" stroke-width="1" fill="none" fill-rule="evenodd">
        <g id="SafeName-Logo" transform="translate(0.000000, -1.000000)">
            <g id="Group-3" transform="translate(0.000000, 0.004200)">
                <mask id="mask-2" fill="white">
                    <use xlink:href="#path-1"></use>
                </mask>
                <g id="Clip-2"></g>
                <path d="M13.79808,20.0244 C13.79808,18.1514 15.37488,16.6174 17.3507657,16.2904 L17.3507657,0.9954 C13.4915657,2.8544 10.7781943,4.0024 9.21065143,4.4404 C3.25316571,6.1064 0.243565714,6.4234 0.243565714,9.7244 L-0.000205714286,22.3504 L14.7525943,22.3504 C14.1549943,21.7164 13.79808,20.9084 13.79808,20.0244" id="Fill-1" fill="#5FC5FC" mask="url(#mask-2)"></path>
            </g>
            <path d="M13.0146171,27.24 C13.0999886,26.438 13.1822743,26.216 13.9238743,24.448 C13.9495886,24.386 13.9742743,24.33 13.9969029,24.275 C14.0226171,24.209 14.0226171,24.209 14.0503886,24.144 C14.0771314,24.08 14.1121029,23.995 14.1542743,23.895 L0.0103885714,23.895 C-0.123325714,29.064 1.05130286,33.221 3.53530286,36.368 C6.01930286,39.514 10.5481029,42.328 17.1227314,44.809 L17.1227314,30.192 C16.3801029,30.143 15.6806743,30.023 15.0974743,29.832 C13.7922171,29.405 12.8706171,28.588 13.0146171,27.24" id="Fill-4" fill="#3E96DE"></path>
            <g id="Group-8" transform="translate(18.514286, 0.004200)">
                <mask id="mask-4" fill="white">
                    <use xlink:href="#path-3"></use>
                </mask>
                <g id="Clip-7"></g>
                <path d="M8.57437714,4.4404 C7.00683429,4.0024 4.29346286,2.8544 0.434262857,0.9954 L0.434262857,16.3314 C2.30729143,16.7304 3.77094857,18.2194 3.77094857,20.0244 C3.77094857,20.9084 3.41403429,21.7164 2.81540571,22.3504 L17.7852343,22.3504 L17.5404343,9.7244 C17.5404343,6.4234 14.5318629,6.1064 8.57437714,4.4404" id="Fill-6" fill="#2A6FB0" mask="url(#mask-4)"></path>
            </g>
            <path d="M22.03416,24.1443 C22.0609029,24.2093 22.0609029,24.2093 22.0886743,24.2753 C22.1113029,24.3303 22.13496,24.3863 22.1606743,24.4483 C22.9022743,26.2163 22.9835314,26.4373 23.0699314,27.2403 C23.2139314,28.5883 22.2913029,29.4053 20.9860457,29.8323 C20.4604457,30.0043 19.83816,30.1193 19.1767886,30.1753 L19.1767886,44.8093 C25.7503886,42.3283 30.2802171,39.5143 32.7642171,36.3683 C35.2482171,33.2213 36.4228457,29.0633 36.2891314,23.8953 L21.9302743,23.8953 C21.9714171,23.9953 22.0074171,24.0803 22.03416,24.1443" id="Fill-9" fill="#2E79C4"></path>
            <path d="M21.4566171,27.3215 C21.3733029,26.5615 20.95776,25.7245 20.5658743,24.7995 C19.9651886,23.3795 19.3429029,22.0275 19.41696,21.9965 C20.2758171,21.6455 20.8610743,20.9475 20.8610743,20.1435 C20.8610743,18.9865 19.64736,17.9515 18.14976,17.9515 C16.65216,17.9515 15.4374171,18.9865 15.4374171,20.1435 C15.4374171,20.9475 16.0237029,21.6455 16.88256,21.9965 C16.9566171,22.0275 16.3343314,23.3795 15.7326171,24.7995 C15.3407314,25.7245 14.9262171,26.5615 14.8429029,27.3215 C14.6670171,28.9175 21.6314743,28.9175 21.4566171,27.3215" id="Fill-11" fill="#8A8A8A"></path>
            <mask id="mask-6" fill="white">
                <use xlink:href="#path-5"></use>
            </mask>
            <g id="Clip-14"></g>
            <polygon id="Fill-13" fill="#525252" mask="url(#mask-6)" points="177.197143 34.2342 183.432343 34.2342 183.432343 15.7422 177.197143 15.7422"></polygon>
            <polygon id="Fill-15" fill="#525252" mask="url(#mask-6)" points="177.197143 14.6122 183.432343 14.6122 183.432343 11.6722 177.197143 11.6722"></polygon>
            <polygon id="Fill-16" fill="#525252" mask="url(#mask-6)" points="170.994857 34.2342 175.5648 34.2342 175.5648 29.6352 170.994857 29.6352"></polygon>
            <path d="M193.248103,29.3704 C193.248103,30.1694 193.190503,30.6894 193.076331,30.9314 C192.961131,31.1724 192.723531,31.2934 192.36456,31.2934 C192.014846,31.2934 191.779303,31.1614 191.659989,30.8964 C191.539646,30.6314 191.479989,30.0624 191.479989,29.1894 L191.479989,20.8424 C191.479989,19.8944 191.539646,19.2974 191.659989,19.0514 C191.779303,18.8054 192.019989,18.6824 192.37896,18.6824 C192.73896,18.6824 192.973474,18.8054 193.083531,19.0514 C193.193589,19.2974 193.248103,19.8944 193.248103,20.8424 L193.248103,29.3704 Z M199.011189,19.3094 C198.81576,18.6684 198.453703,18.0454 197.923989,17.4414 C197.394274,16.8384 196.643417,16.3484 195.66936,15.9724 C194.694274,15.5954 193.527874,15.4074 192.169131,15.4074 C190.551189,15.4074 189.222274,15.7004 188.182389,16.2854 C187.143531,16.8704 186.42456,17.6464 186.025474,18.6124 C185.62536,19.5784 185.425817,20.9214 185.425817,22.6394 L185.425817,27.3774 C185.425817,28.9474 185.535874,30.1254 185.75496,30.9104 C185.975074,31.6954 186.342274,32.3644 186.85656,32.9164 C187.370846,33.4694 188.092903,33.8834 189.022731,34.1574 C189.951531,34.4314 191.085017,34.5684 192.424217,34.5684 C193.622503,34.5684 194.683989,34.4084 195.608674,34.0874 C196.532331,33.7664 197.290389,33.2694 197.878731,32.5964 C198.468103,31.9224 198.852789,31.1984 199.032789,30.4224 C199.212789,29.6464 199.303303,28.4274 199.303303,26.7644 L199.303303,22.2354 C199.303303,20.9254 199.205589,19.9504 199.011189,19.3094 L199.011189,19.3094 Z" id="Fill-17" fill="#525252" mask="url(#mask-6)"></path>
            <path d="M145.736949,34.2336 L145.736949,22.1796 C145.736949,20.5906 145.799691,19.6106 145.924149,19.2396 C146.048606,18.8676 146.325291,18.6816 146.754206,18.6816 C147.172834,18.6816 147.440263,18.8706 147.555463,19.2466 C147.669634,19.6226 147.727234,20.6006 147.727234,22.1796 L147.727234,34.2336 L153.593177,34.2336 L153.593177,21.0926 C153.593177,19.5786 153.49752,18.4846 153.308263,17.8116 C153.119006,17.1376 152.687006,16.5686 152.01432,16.1046 C151.340606,15.6396 150.489977,15.4076 149.462434,15.4076 C148.683806,15.4076 147.976149,15.5816 147.338434,15.9296 C146.699691,16.2786 146.125749,16.8006 145.617634,17.4976 C144.688834,16.1046 143.41752,15.4076 141.801634,15.4076 C140.973634,15.4076 140.23512,15.5816 139.58712,15.9296 C138.93912,16.2786 138.380606,16.8006 137.911577,17.4976 L138.015463,15.7416 L132.045634,15.7416 L132.045634,34.2336 L137.911577,34.2336 L137.911577,21.4136 C137.911577,20.5216 137.920834,19.9386 137.941406,19.6646 C137.960949,19.3906 138.065863,19.1586 138.256149,18.9676 C138.444377,18.7766 138.674777,18.6816 138.944263,18.6816 C139.373177,18.6816 139.634434,18.8626 139.729063,19.2256 C139.823691,19.5876 139.871006,20.6746 139.871006,22.4866 L139.871006,34.2336 L145.736949,34.2336 Z" id="Fill-18" fill="#46A7EB" mask="url(#mask-6)"></path>
            <polygon id="Fill-19" fill="#46A7EB" mask="url(#mask-6)" points="105.45696 23.9773 108.733989 34.2333 114.25536 34.2333 114.25536 11.6723 108.988046 11.6723 108.988046 21.8313 105.45696 11.6723 100.189646 11.6723 100.189646 34.2333 105.45696 34.2333"></polygon>
            <path d="M122.237589,27.0989 C122.391874,26.6529 122.953474,26.0999 123.92136,25.4409 L123.92136,29.2449 C123.92136,30.1739 123.86376,30.7469 123.749589,30.9659 C123.63336,31.1839 123.387531,31.2929 123.007989,31.2929 C122.608903,31.2929 122.342503,31.1539 122.20776,30.8749 C122.073017,30.5969 122.005131,29.9789 122.005131,29.0219 C122.005131,28.1859 122.083303,27.5449 122.237589,27.0989 M117.659417,33.7389 C118.541931,34.2919 119.511874,34.5679 120.569246,34.5679 C121.376674,34.5679 122.073017,34.4029 122.656217,34.0739 C123.240446,33.7439 123.715646,33.2489 124.085931,32.5889 L124.085931,34.2339 L129.966274,34.2339 L129.966274,24.9529 C129.966274,21.8959 129.86136,19.8779 129.651531,18.8979 C129.442731,17.9179 128.818389,17.0909 127.781589,16.4179 C126.74376,15.7449 125.20296,15.4079 123.15816,15.4079 C121.45176,15.4079 120.066274,15.7049 118.998617,16.2989 C117.93096,16.8939 117.220217,17.5789 116.86536,18.3549 C116.51256,19.1309 116.334617,20.2339 116.334617,21.6639 L116.334617,22.9049 L122.005131,22.9049 L122.005131,20.9679 C122.005131,19.9359 122.055531,19.2979 122.155303,19.0519 C122.255074,18.8059 122.51016,18.6819 122.918503,18.6819 C123.277474,18.6819 123.534617,18.8279 123.688903,19.1209 C123.844217,19.4139 123.92136,20.0429 123.92136,21.0089 C123.92136,21.7809 123.850389,22.2909 123.711531,22.5419 C123.571646,22.7929 122.51016,23.2809 120.523989,24.0049 C118.668446,24.6739 117.50616,25.2599 117.037131,25.7609 C116.569131,26.2629 116.334617,27.2059 116.334617,28.5899 L116.334617,30.1089 C116.334617,31.9759 116.775874,33.1859 117.659417,33.7389" id="Fill-20" fill="#46A7EB" mask="url(#mask-6)"></path>
            <path d="M161.538171,20.9534 C161.538171,19.9124 161.587543,19.2744 161.688343,19.0374 C161.787086,18.8004 162.046286,18.6824 162.464914,18.6824 C162.804343,18.6824 163.028571,18.8214 163.138629,19.1004 C163.248686,19.3784 163.3032,19.9964 163.3032,20.9534 L163.3032,22.3054 L161.538171,22.3054 L161.538171,20.9534 Z M162.599657,34.5684 C163.917257,34.5684 165.011657,34.3934 165.884914,34.0454 C166.757143,33.6974 167.477143,33.1744 168.046971,32.4774 C168.615771,31.7814 168.9768,31.1264 169.132114,30.5134 C169.285371,29.8994 169.362514,29.0214 169.362514,27.8794 L169.362514,26.5134 L163.632343,26.5134 L163.632343,28.9524 C163.632343,29.8714 163.5552,30.4924 163.400914,30.8124 C163.2456,31.1334 162.939086,31.2934 162.480343,31.2934 C162.112114,31.2934 161.861143,31.1724 161.731543,30.9314 C161.601943,30.6894 161.538171,30.1504 161.538171,29.3144 L161.538171,25.3154 L169.362514,25.3154 L169.362514,22.8624 C169.362514,21.0694 169.141371,19.6784 168.698057,18.6894 C168.253714,17.7004 167.480229,16.9054 166.378629,16.3064 C165.276,15.7064 163.876114,15.4074 162.181029,15.4074 C160.794514,15.4074 159.567429,15.6564 158.5008,16.1534 C157.433143,16.6504 156.6648,17.3654 156.1968,18.2994 C155.727771,19.2324 155.492229,20.5074 155.492229,22.1244 L155.492229,27.5164 C155.492229,28.8914 155.598171,29.9394 155.806971,30.6594 C156.0168,31.3794 156.393257,32.0384 156.936343,32.6384 C157.480457,33.2374 158.240571,33.7084 159.218743,34.0524 C160.195886,34.3964 161.3232,34.5684 162.599657,34.5684 L162.599657,34.5684 Z" id="Fill-21" fill="#46A7EB" mask="url(#mask-6)"></path>
            <path d="M90.64512,21.0066 C90.64512,19.9646 90.69552,19.3236 90.79632,19.0866 C90.89712,18.8496 91.1594057,18.7306 91.5831771,18.7306 C91.92672,18.7306 92.1530057,18.8706 92.2640914,19.1496 C92.3751771,19.4286 92.43072,20.0476 92.43072,21.0066 L92.43072,22.3606 L90.64512,22.3606 L90.64512,21.0066 Z M95.0402057,34.1246 C95.9237486,33.7756 96.6519771,33.2526 97.2269486,32.5536 C97.80192,31.8556 98.1680914,31.1996 98.3244343,30.5856 C98.4807771,29.9706 98.5589486,29.0906 98.5589486,27.9456 L98.5589486,26.5776 L92.7639771,26.5776 L92.7639771,29.0216 C92.7639771,29.9436 92.6847771,30.5646 92.5294629,30.8856 C92.37312,31.2066 92.0624914,31.3676 91.5986057,31.3676 C91.2252343,31.3676 90.9732343,31.2466 90.8415771,31.0046 C90.7109486,30.7616 90.64512,30.2226 90.64512,29.3846 L90.64512,25.3776 L98.5589486,25.3776 L98.5589486,22.9196 C98.5589486,21.1226 98.33472,19.7296 97.8862629,18.7376 C97.4367771,17.7466 96.6550629,16.9506 95.5400914,16.3496 C94.42512,15.7496 93.0108343,15.4496 91.2962057,15.4496 C89.8942629,15.4496 88.6527771,15.6986 87.5738057,16.1966 C86.4938057,16.6946 85.7172343,17.4116 85.2430629,18.3466 C84.7688914,19.2816 84.53232,20.5596 84.53232,22.1796 L84.53232,27.5836 C84.53232,28.9606 84.6382629,30.0106 84.8501486,30.7316 C85.0620343,31.4536 85.4426057,32.1136 85.9928914,32.7146 C86.5421486,33.3156 87.31152,33.7876 88.2999771,34.1316 C89.2884343,34.4766 90.4280914,34.6486 91.7189486,34.6486 C93.0509486,34.6486 94.15872,34.4736 95.0402057,34.1246 L95.0402057,34.1246 Z" id="Fill-22" fill="#205995" mask="url(#mask-6)"></path>
            <path d="M45.5532686,22.3611 C46.0675543,22.7981 47.1166971,23.5011 48.7006971,24.4691 C50.2846971,25.4281 51.2782971,26.1121 51.6814971,26.5221 C52.07544,26.9311 52.2718971,27.8021 52.2718971,29.1331 C52.2718971,29.7381 52.1680114,30.1941 51.9612686,30.5021 C51.7545257,30.8091 51.4397829,30.9621 51.0160114,30.9621 C50.59224,30.9621 50.29704,30.8411 50.1304114,30.5991 C49.9648114,30.3571 49.8814971,29.8131 49.8814971,28.9651 L49.8814971,26.2151 L43.9651543,26.2151 L43.9651543,27.6951 C43.9651543,29.3891 44.1513257,30.6971 44.5246971,31.6181 C44.8980686,32.5401 45.6869829,33.2991 46.8924686,33.8941 C48.0979543,34.4901 49.5533829,34.7881 51.2577257,34.7881 C52.8118971,34.7881 54.1726971,34.5301 55.3432114,34.0131 C56.5137257,33.4961 57.30264,32.8571 57.7109829,32.0931 C58.1203543,31.3301 58.32504,30.1431 58.32504,28.5331 C58.32504,26.3171 57.9568114,24.7121 57.2193257,23.7151 C56.4828686,22.7191 54.6982971,21.4441 51.8635543,19.8891 C50.8740686,19.3501 50.2744114,18.8891 50.0625257,18.5071 C49.8403543,18.1261 49.7302971,17.5581 49.7302971,16.8041 C49.7302971,16.2171 49.8280114,15.7801 50.0244686,15.4911 C50.2219543,15.2031 50.5109829,15.0581 50.89464,15.0581 C51.2484686,15.0581 51.5004686,15.1651 51.6516686,15.3801 C51.8028686,15.5931 51.8779543,16.0911 51.8779543,16.8741 L51.8779543,18.5491 L57.7942971,18.5491 L57.7942971,17.6551 C57.7942971,15.8591 57.6060686,14.5861 57.2275543,13.8371 C56.84904,13.0871 56.0776114,12.4661 54.91224,11.9721 C53.7468686,11.4791 52.3377257,11.2331 50.6827543,11.2331 C49.1697257,11.2331 47.8788686,11.4581 46.8091543,11.9101 C45.7404686,12.3611 44.9659543,12.9871 44.48664,13.7881 C44.0073257,14.5881 43.7676686,15.8541 43.7676686,17.5861 C43.7676686,18.7861 43.9373829,19.7731 44.2747543,20.5461 C44.6121257,21.3191 45.0389829,21.9241 45.5532686,22.3611" id="Fill-23" fill="#205995" mask="url(#mask-6)"></path>
            <path d="M78.2977371,11.9587 C77.6528229,12.1257 77.15088,12.3707 76.7929371,12.6917 C76.4339657,13.0127 76.2097371,13.3777 76.1192229,13.7877 C76.02768,14.1977 75.9834514,15.0117 75.9834514,16.2307 L74.7265371,16.2307 L74.7265371,19.1637 L75.9834514,19.1637 L75.9834514,34.3127 L82.0962514,34.3127 L82.0962514,19.1637 L83.5485943,19.1637 L83.5485943,16.2307 L80.9761371,16.2307 L80.9761371,15.6447 C80.9761371,15.1427 81.08928,14.8367 81.3165943,14.7297 C81.5439086,14.6237 82.2875657,14.5697 83.5485943,14.5697 L83.5485943,11.7077 L81.3093943,11.7077 C79.9475657,11.7077 78.94368,11.7917 78.2977371,11.9587" id="Fill-24" fill="#205995" mask="url(#mask-6)"></path>
            <path d="M65.8369029,27.1643 C65.9932457,26.7173 66.5610171,26.1643 67.5391886,25.5023 L67.5391886,29.3143 C67.5391886,30.2453 67.4815886,30.8203 67.36536,31.0393 C67.25016,31.2583 66.9991886,31.3673 66.61656,31.3673 C66.21336,31.3673 65.9428457,31.2273 65.8070743,30.9483 C65.6702743,30.6693 65.6023886,30.0503 65.6023886,29.0913 C65.6023886,28.2533 65.68056,27.6113 65.8369029,27.1643 M66.2606743,34.1523 C66.8510743,33.8223 67.3324457,33.3263 67.7058171,32.6653 L67.7058171,34.3133 L73.6530171,34.3133 L73.6530171,25.0143 C73.6530171,21.9513 73.5470743,19.9293 73.3351886,18.9473 C73.1222743,17.9653 72.4927886,17.1363 71.4436457,16.4613 C70.3945029,15.7873 68.8362171,15.4493 66.76776,15.4493 C65.0428457,15.4493 63.6409029,15.7473 62.5609029,16.3433 C61.4819314,16.9383 60.76296,17.6253 60.4050171,18.4023 C60.0470743,19.1803 59.8681029,20.2853 59.8681029,21.7193 L59.8681029,22.9613 L65.6023886,22.9613 L65.6023886,21.0203 C65.6023886,19.9873 65.6527886,19.3473 65.7535886,19.1013 C65.8554171,18.8533 66.11256,18.7303 66.5250171,18.7303 C66.8881029,18.7303 67.1483314,18.8773 67.3046743,19.1703 C67.4610171,19.4633 67.5391886,20.0943 67.5391886,21.0623 C67.5391886,21.8353 67.4682171,22.3473 67.3273029,22.5983 C67.1863886,22.8503 66.11256,23.3383 64.1047886,24.0643 C62.2286743,24.7343 61.0530171,25.3213 60.5788457,25.8243 C60.1046743,26.3263 59.8681029,27.2713 59.8681029,28.6583 L59.8681029,30.1803 C59.8681029,32.0513 60.3145029,33.2643 61.2073029,33.8173 C62.1001029,34.3723 63.0803314,34.6483 64.1500457,34.6483 C64.9667314,34.6483 65.6702743,34.4833 66.2606743,34.1523" id="Fill-25" fill="#205995" mask="url(#mask-6)"></path>
            <path d="M99.0766286,40.1257 C98.9244,39.9307 98.6991429,39.7697 98.4018857,39.6437 C98.1036,39.5177 97.7754857,39.4547 97.4165143,39.4547 C96.6008571,39.4547 95.9250857,39.7927 95.3871429,40.4697 L95.3871429,39.5897 L93.8741143,39.5897 L93.8741143,45.5757 L95.5033714,45.5757 L95.5033714,42.8647 C95.5033714,42.1957 95.5445143,41.7377 95.6278286,41.4897 C95.7111429,41.2417 95.8644,41.0427 96.0886286,40.8927 C96.3128571,40.7417 96.5658857,40.6667 96.8477143,40.6667 C97.0678286,40.6667 97.2560571,40.7197 97.4134286,40.8247 C97.5697714,40.9297 97.6829143,41.0767 97.7518286,41.2667 C97.8217714,41.4567 97.8567429,41.8747 97.8567429,42.5207 L97.8567429,45.5757 L99.4849714,45.5757 L99.4849714,41.8557 C99.4849714,41.3937 99.4561714,41.0387 99.3954857,40.7907 C99.3358286,40.5427 99.2288571,40.3207 99.0766286,40.1257" id="Fill-26" fill="#45A1D0" mask="url(#mask-6)"></path>
            <path d="M77.0757943,42.0701 C77.0727086,41.6381 77.1858514,41.2961 77.4183086,41.0441 C77.6497371,40.7931 77.9439086,40.6671 78.2987657,40.6671 C78.6309943,40.6671 78.9138514,40.7861 79.14528,41.0251 C79.3767086,41.2631 79.4991086,41.6121 79.5104229,42.0701 L77.0757943,42.0701 Z M80.3682514,40.3371 C79.8395657,39.7491 79.11648,39.4551 78.2000229,39.4551 C77.3853943,39.4551 76.7106514,39.7361 76.1768229,40.2981 C75.6440229,40.8591 75.3776229,41.6361 75.3776229,42.6281 C75.3776229,43.4581 75.5802514,44.1461 75.9855086,44.6911 C76.4997943,45.3701 77.2917943,45.7111 78.3625371,45.7111 C79.0393371,45.7111 79.6019657,45.5591 80.05248,45.2571 C80.5029943,44.9541 80.8321371,44.5141 81.0409371,43.9351 L79.4178514,43.6711 C79.3283657,43.9711 79.1977371,44.1891 79.0239086,44.3241 C78.85008,44.4591 78.6351086,44.5271 78.3800229,44.5271 C78.0056229,44.5271 77.6919086,44.3971 77.4409371,44.1351 C77.1899657,43.8741 77.0583086,43.5091 77.0469943,43.0391 L81.1273371,43.0391 C81.1509943,41.8261 80.8979657,40.9251 80.3682514,40.3371 L80.3682514,40.3371 Z" id="Fill-27" fill="#45A1D0" mask="url(#mask-6)"></path>
            <path d="M67.9170857,42.115 C67.9170857,42.971 67.8769714,43.51 67.7957143,43.73 C67.7144571,43.949 67.5632571,44.134 67.3431429,44.282 C67.1230286,44.43 66.8741143,44.505 66.5953714,44.505 C66.3526286,44.505 66.1510286,44.449 65.9926286,44.338 C65.8342286,44.227 65.7252,44.077 65.6655429,43.887 C65.6048571,43.698 65.5760571,43.182 65.5760571,42.341 L65.5760571,39.59 L63.9468,39.59 L63.9468,43.377 C63.9468,43.941 64.0198286,44.383 64.1669143,44.702 C64.314,45.021 64.5516,45.269 64.8797143,45.446 C65.2088571,45.622 65.5791429,45.711 65.9926286,45.711 C66.3989143,45.711 66.7836,45.618 67.1487429,45.434 C67.5138857,45.25 67.8090857,44.999 68.0333143,44.679 L68.0333143,45.575 L69.5463429,45.575 L69.5463429,39.59 L67.9170857,39.59 L67.9170857,42.115 Z" id="Fill-28" fill="#45A1D0" mask="url(#mask-6)"></path>
            <path d="M73.3748914,39.6467 C73.1681486,39.7737 72.9356914,40.0397 72.6764914,40.4407 L72.6764914,39.5897 L71.1634629,39.5897 L71.1634629,45.5757 L72.79272,45.5757 L72.79272,43.7267 C72.79272,42.7087 72.8379771,42.0397 72.9284914,41.7207 C73.0190057,41.4007 73.1434629,41.1807 73.3028914,41.0587 C73.4602629,40.9367 73.6536343,40.8757 73.8819771,40.8757 C74.11752,40.8757 74.3726057,40.9617 74.6472343,41.1347 L75.1512343,39.7537 C74.8076914,39.5547 74.4497486,39.4547 74.0794629,39.4547 C73.8161486,39.4547 73.5816343,39.5187 73.3748914,39.6467" id="Fill-29" fill="#45A1D0" mask="url(#mask-6)"></path>
            <path d="M87.5097257,42.3064 L88.6576114,39.2414 L89.8281257,42.3064 L87.5097257,42.3064 Z M87.7699543,37.3134 L84.46104,45.5754 L86.2805829,45.5754 L86.9820686,43.6984 L90.37944,43.6984 L91.12104,45.5754 L92.9878971,45.5754 L89.5853829,37.3134 L87.7699543,37.3134 Z" id="Fill-30" fill="#45A1D0" mask="url(#mask-6)"></path>
            <path d="M60.8105829,44.1633 C60.6141257,44.3343 60.3610971,44.4203 60.0514971,44.4203 C59.6380114,44.4203 59.3088686,44.2733 59.06304,43.9803 C58.81824,43.6873 58.6948114,43.1853 58.6948114,42.4763 C58.6948114,41.8373 58.8161829,41.3813 59.0568686,41.1093 C59.2985829,40.8363 59.6225829,40.7003 60.02784,40.7003 C60.3333257,40.7003 60.5812114,40.7793 60.7725257,40.9373 C60.96384,41.0953 61.0872686,41.3303 61.1407543,41.6423 L62.7463543,41.3593 C62.5529829,40.7173 62.2361829,40.2393 61.7938971,39.9253 C61.3505829,39.6123 60.75504,39.4553 60.0052114,39.4553 C59.0887543,39.4553 58.3625829,39.7303 57.8256686,40.2803 C57.2887543,40.8313 57.0192686,41.6003 57.0192686,42.5883 C57.0192686,43.5653 57.2877257,44.3303 57.8225829,44.8823 C58.35744,45.4343 59.0753829,45.7103 59.9753829,45.7103 C60.7684114,45.7103 61.3999543,45.5283 61.87104,45.1633 C62.3431543,44.7993 62.6620114,44.2603 62.8276114,43.5463 L61.2281829,43.2813 C61.1469257,43.6983 61.0080686,43.9923 60.8105829,44.1633" id="Fill-31" fill="#45A1D0" mask="url(#mask-6)"></path>
            <path d="M51.99984,42.0701 C51.9957257,41.6381 52.1098971,41.2961 52.3423543,41.0441 C52.5737829,40.7931 52.8669257,40.6671 53.2228114,40.6671 C53.55504,40.6671 53.8378971,40.7861 54.0693257,41.0251 C54.3007543,41.2631 54.4221257,41.6121 54.4344686,42.0701 L51.99984,42.0701 Z M55.2922971,40.3371 C54.7636114,39.7491 54.0405257,39.4551 53.1240686,39.4551 C52.30944,39.4551 51.6346971,39.7361 51.1008686,40.2981 C50.5680686,40.8591 50.3016686,41.6361 50.3016686,42.6281 C50.3016686,43.4581 50.5042971,44.1461 50.9095543,44.6911 C51.42384,45.3701 52.21584,45.7111 53.2865829,45.7111 C53.9633829,45.7111 54.5260114,45.5591 54.9765257,45.2571 C55.42704,44.9541 55.7561829,44.5141 55.9639543,43.9351 L54.3418971,43.6711 C54.2524114,43.9711 54.1217829,44.1891 53.9479543,44.3241 C53.7741257,44.4591 53.5591543,44.5271 53.3040686,44.5271 C52.9296686,44.5271 52.6159543,44.3971 52.3649829,44.1351 C52.1140114,43.8741 51.9823543,43.5091 51.97104,43.0391 L56.0513829,43.0391 C56.07504,41.8261 55.8220114,40.9251 55.2922971,40.3371 L55.2922971,40.3371 Z" id="Fill-32" fill="#45A1D0" mask="url(#mask-6)"></path>
            <path d="M48.0668914,41.0134 C47.6667771,40.8084 47.0496343,40.6104 46.2144343,40.4184 C45.3802629,40.2274 44.8546629,40.0434 44.6386629,39.8664 C44.46792,39.7274 44.3825486,39.5604 44.3825486,39.3654 C44.3825486,39.1504 44.4740914,38.9794 44.6561486,38.8514 C44.9379771,38.6534 45.3278057,38.5534 45.8266629,38.5534 C46.3100914,38.5534 46.6721486,38.6464 46.9128343,38.8324 C47.1545486,39.0184 47.3129486,39.3234 47.3859771,39.7484 L49.1016343,39.6744 C49.0738629,38.9154 48.7920343,38.3094 48.2520343,37.8544 C47.7130629,37.4004 46.9097486,37.1724 45.8441486,37.1724 C45.1910057,37.1724 44.63352,37.2684 44.1716914,37.4604 C43.7098629,37.6514 43.3560343,37.9304 43.1112343,38.2974 C42.8654057,38.6634 42.7430057,39.0564 42.7430057,39.4774 C42.7430057,40.1314 43.0032343,40.6854 43.52472,41.1394 C43.8960343,41.4634 44.5419771,41.7354 45.46152,41.9574 C46.1763771,42.1304 46.6340914,42.2504 46.8346629,42.3184 C47.1288343,42.4194 47.3345486,42.5384 47.4528343,42.6754 C47.5700914,42.8124 47.6297486,42.9794 47.6297486,43.1744 C47.6297486,43.4784 47.4888343,43.7444 47.2090629,43.9714 C46.9292914,44.1994 46.51272,44.3124 45.9603771,44.3124 C45.4378629,44.3124 45.0243771,44.1854 44.7168343,43.9294 C44.4092914,43.6744 44.2056343,43.2744 44.1048343,42.7294 L42.4354629,42.8874 C42.5475771,43.8114 42.89112,44.5144 43.46712,44.9974 C44.04312,45.4804 44.8680343,45.7214 45.9428914,45.7214 C46.6803771,45.7214 47.2964914,45.6214 47.7912343,45.4204 C48.2859771,45.2194 48.6686057,44.9124 48.93912,44.4984 C49.2096343,44.0854 49.3454057,43.6424 49.3454057,43.1684 C49.3454057,42.6464 49.2322629,42.2074 49.0059771,41.8524 C48.7796914,41.4974 48.4670057,41.2184 48.0668914,41.0134" id="Fill-33" fill="#45A1D0" mask="url(#mask-6)"></path>
            <polygon id="Fill-34" fill="#45A1D0" mask="url(#mask-6)" points="157.1616 45.5752 158.877257 45.5752 158.877257 37.3132 157.1616 37.3132"></polygon>
            <path d="M168.975257,42.0701 C168.971143,41.6381 169.084286,41.2961 169.316743,41.0441 C169.5492,40.7931 169.842343,40.6671 170.1972,40.6671 C170.530457,40.6671 170.812286,40.7861 171.044743,41.0251 C171.276171,41.2631 171.397543,41.6121 171.409886,42.0701 L168.975257,42.0701 Z M172.267714,40.3371 C171.739029,39.7491 171.014914,39.4551 170.099486,39.4551 C169.284857,39.4551 168.610114,39.7361 168.076286,40.2981 C167.542457,40.8591 167.277086,41.6361 167.277086,42.6281 C167.277086,43.4581 167.479714,44.1461 167.884971,44.6911 C168.399257,45.3701 169.191257,45.7111 170.262,45.7111 C170.937771,45.7111 171.501429,45.5591 171.951943,45.2571 C172.401429,44.9541 172.730571,44.5141 172.939371,43.9351 L171.316286,43.6711 C171.227829,43.9711 171.0972,44.1891 170.923371,44.3241 C170.749543,44.4591 170.534571,44.5271 170.279486,44.5271 C169.904057,44.5271 169.591371,44.3971 169.339371,44.1351 C169.0884,43.8741 168.956743,43.5091 168.946457,43.0391 L173.0268,43.0391 C173.050457,41.8261 172.797429,40.9251 172.267714,40.3371 L172.267714,40.3371 Z" id="Fill-35" fill="#45A1D0" mask="url(#mask-6)"></path>
            <path d="M183.767966,44.3972 C183.659966,44.3972 183.568423,44.3712 183.492309,44.3182 C183.417223,44.2662 183.36888,44.1992 183.348309,44.1182 C183.32568,44.0382 183.316423,43.7532 183.316423,43.2652 L183.316423,40.8532 L184.429337,40.8532 L184.429337,39.5902 L183.316423,39.5902 L183.316423,37.4772 L181.680994,38.4012 L181.680994,39.5902 L180.933223,39.5902 L180.933223,40.8532 L181.680994,40.8532 L181.680994,43.4622 C181.680994,44.0222 181.69848,44.3942 181.732423,44.5782 C181.775623,44.8372 181.852766,45.0432 181.961794,45.1952 C182.07288,45.3472 182.24568,45.4712 182.481223,45.5662 C182.716766,45.6622 182.981109,45.7102 183.27528,45.7102 C183.753566,45.7102 184.18248,45.6312 184.562023,45.4742 L184.423166,44.2452 C184.136194,44.3472 183.918137,44.3972 183.767966,44.3972" id="Fill-36" fill="#45A1D0" mask="url(#mask-6)"></path>
            <path d="M164.128731,43.9944 C163.866446,44.3044 163.547589,44.4594 163.17216,44.4594 C162.701074,44.4594 162.333874,44.2524 162.071589,43.8394 C161.889531,43.5544 161.797989,43.0924 161.797989,42.4534 C161.797989,41.8594 161.928617,41.4134 162.189874,41.1144 C162.451131,40.8164 162.775131,40.6664 163.161874,40.6664 C163.558903,40.6664 163.885989,40.8184 164.141074,41.1204 C164.39616,41.4224 164.523703,41.9174 164.523703,42.6054 C164.523703,43.2214 164.392046,43.6844 164.128731,43.9944 L164.128731,43.9944 Z M164.517531,40.2894 C164.015589,39.7334 163.420046,39.4544 162.73296,39.4544 C161.982103,39.4544 161.362903,39.7194 160.871246,40.2464 C160.380617,40.7744 160.134789,41.5454 160.134789,42.5604 C160.134789,43.5524 160.386789,44.3254 160.891817,44.8794 C161.395817,45.4334 162.001646,45.7104 162.708274,45.7104 C163.05696,45.7104 163.401531,45.6264 163.744046,45.4594 C164.085531,45.2924 164.38176,45.0374 164.632731,44.6964 L164.632731,45.5754 L166.146789,45.5754 L166.146789,37.3134 L164.517531,37.3134 L164.517531,40.2894 Z" id="Fill-37" fill="#45A1D0" mask="url(#mask-6)"></path>
            <path d="M179.545269,40.1257 C179.39304,39.9307 179.167783,39.7697 178.870526,39.6437 C178.57224,39.5177 178.243097,39.4547 177.885154,39.4547 C177.069497,39.4547 176.393726,39.7927 175.855783,40.4697 L175.855783,39.5897 L174.342754,39.5897 L174.342754,45.5757 L175.970983,45.5757 L175.970983,42.8647 C175.970983,42.1957 176.012126,41.7377 176.09544,41.4897 C176.179783,41.2417 176.33304,41.0427 176.557269,40.8927 C176.780469,40.7417 177.034526,40.6667 177.316354,40.6667 C177.536469,40.6667 177.724697,40.7197 177.882069,40.8247 C178.037383,40.9297 178.151554,41.0767 178.220469,41.2667 C178.289383,41.4567 178.324354,41.8747 178.324354,42.5207 L178.324354,45.5757 L179.953611,45.5757 L179.953611,41.8557 C179.953611,41.3937 179.923783,41.0387 179.864126,40.7907 C179.804469,40.5427 179.697497,40.3207 179.545269,40.1257" id="Fill-38" fill="#45A1D0" mask="url(#mask-6)"></path>
            <polygon id="Fill-39" fill="#45A1D0" mask="url(#mask-6)" points="185.559429 45.5752 187.188686 45.5752 187.188686 39.5902 185.559429 39.5902"></polygon>
            <path d="M195.244971,43.8396 L193.772057,39.5896 L192.039943,39.5896 L194.380971,45.5916 C194.284286,45.9266 194.146457,46.2016 193.9644,46.4176 C193.782343,46.6336 193.502571,46.7416 193.123029,46.7416 C192.918343,46.7416 192.688971,46.7176 192.433886,46.6686 L192.578914,47.9086 C192.880286,47.9726 193.1868,48.0046 193.500514,48.0046 C193.809086,48.0046 194.0868,47.9726 194.3316,47.9086 C194.578457,47.8446 194.784171,47.7556 194.952857,47.6406 C195.120514,47.5266 195.268629,47.3766 195.398229,47.1926 C195.527829,47.0086 195.664629,46.7416 195.8076,46.3926 L196.1964,45.3496 L198.369771,39.5896 L196.681886,39.5896 L195.244971,43.8396 Z" id="Fill-40" fill="#45A1D0" mask="url(#mask-6)"></path>
            <polygon id="Fill-41" fill="#45A1D0" mask="url(#mask-6)" points="185.559429 38.7782 187.188686 38.7782 187.188686 37.3132 185.559429 37.3132"></polygon>
            <path d="M191.019291,44.3972 C190.911291,44.3972 190.819749,44.3712 190.743634,44.3182 C190.668549,44.2662 190.620206,44.1992 190.599634,44.1182 C190.578034,44.0382 190.567749,43.7532 190.567749,43.2652 L190.567749,40.8532 L191.680663,40.8532 L191.680663,39.5902 L190.567749,39.5902 L190.567749,37.4772 L188.933349,38.4012 L188.933349,39.5902 L188.184549,39.5902 L188.184549,40.8532 L188.933349,40.8532 L188.933349,43.4622 C188.933349,44.0222 188.949806,44.3942 188.984777,44.5782 C189.026949,44.8372 189.104091,45.0432 189.214149,45.1952 C189.324206,45.3472 189.497006,45.4712 189.732549,45.5662 C189.96912,45.6622 190.232434,45.7102 190.526606,45.7102 C191.00592,45.7102 191.434834,45.6312 191.813349,45.4742 L191.674491,44.2452 C191.388549,44.3472 191.169463,44.3972 191.019291,44.3972" id="Fill-42" fill="#45A1D0" mask="url(#mask-6)"></path>
            <path d="M118.075063,43.8396 L116.602149,39.5896 L114.870034,39.5896 L117.211063,45.5916 C117.114377,45.9266 116.976549,46.2016 116.794491,46.4176 C116.612434,46.6336 116.332663,46.7416 115.95312,46.7416 C115.748434,46.7416 115.519063,46.7176 115.263977,46.6686 L115.409006,47.9086 C115.710377,47.9726 116.016891,48.0046 116.330606,48.0046 C116.639177,48.0046 116.916891,47.9726 117.161691,47.9086 C117.408549,47.8446 117.614263,47.7556 117.782949,47.6406 C117.950606,47.5266 118.09872,47.3766 118.22832,47.1926 C118.35792,47.0086 118.49472,46.7416 118.637691,46.3926 L119.026491,45.3496 L121.199863,39.5896 L119.511977,39.5896 L118.075063,43.8396 Z" id="Fill-43" fill="#45A1D0" mask="url(#mask-6)"></path>
            <path d="M130.306423,39.7229 C129.992709,39.5439 129.61008,39.4549 129.158537,39.4549 C128.802651,39.4549 128.468366,39.5339 128.15568,39.6919 C127.841966,39.8489 127.55088,40.0879 127.280366,40.4079 C127.095223,40.0879 126.856594,39.8489 126.566537,39.6919 C126.277509,39.5339 125.934994,39.4549 125.541051,39.4549 C124.799451,39.4549 124.15968,39.7729 123.622766,40.4079 L123.622766,39.5899 L122.121051,39.5899 L122.121051,45.5759 L123.750309,45.5759 L123.750309,42.6669 C123.750309,42.0929 123.793509,41.6809 123.880937,41.4329 C123.967337,41.1849 124.111337,40.9949 124.312937,40.8639 C124.513509,40.7329 124.739794,40.6669 124.990766,40.6669 C125.198537,40.6669 125.364137,40.7079 125.485509,40.7909 C125.607909,40.8729 125.698423,40.9989 125.754994,41.1679 C125.813623,41.3369 125.842423,41.7129 125.842423,42.2949 L125.842423,45.5759 L127.47168,45.5759 L127.47168,42.7009 C127.47168,42.1379 127.515909,41.7249 127.604366,41.4639 C127.693851,41.2029 127.83888,41.0049 128.039451,40.8689 C128.240023,40.7339 128.454994,40.6669 128.683337,40.6669 C128.996023,40.6669 129.227451,40.7799 129.378651,41.0049 C129.490766,41.1779 129.547337,41.5609 129.547337,42.1549 L129.547337,45.5759 L131.175566,45.5759 L131.175566,41.7489 C131.175566,41.1779 131.118994,40.7649 131.007909,40.5089 C130.852594,40.1629 130.619109,39.9009 130.306423,39.7229" id="Fill-44" fill="#45A1D0" mask="url(#mask-6)"></path>
            <path d="M113.580103,40.1257 C113.427874,39.9307 113.202617,39.7697 112.90536,39.6437 C112.607074,39.5177 112.277931,39.4547 111.919989,39.4547 C111.104331,39.4547 110.427531,39.7927 109.890617,40.4697 L109.890617,39.5897 L108.377589,39.5897 L108.377589,45.5757 L110.005817,45.5757 L110.005817,42.8647 C110.005817,42.1957 110.047989,41.7377 110.130274,41.4897 C110.214617,41.2417 110.367874,41.0427 110.592103,40.8927 C110.815303,40.7417 111.06936,40.6667 111.351189,40.6667 C111.571303,40.6667 111.759531,40.7197 111.916903,40.8247 C112.072217,40.9297 112.186389,41.0767 112.255303,41.2667 C112.324217,41.4567 112.359189,41.8747 112.359189,42.5207 L112.359189,45.5757 L113.988446,45.5757 L113.988446,41.8557 C113.988446,41.3937 113.958617,41.0387 113.89896,40.7907 C113.839303,40.5427 113.732331,40.3207 113.580103,40.1257" id="Fill-45" fill="#45A1D0" mask="url(#mask-6)"></path>
            <path d="M105.00696,43.9465 C104.71896,44.2615 104.362046,44.4205 103.937246,44.4205 C103.512446,44.4205 103.154503,44.2615 102.864446,43.9465 C102.575417,43.6315 102.430389,43.1765 102.430389,42.5825 C102.430389,41.9885 102.575417,41.5345 102.864446,41.2185 C103.154503,40.9035 103.512446,40.7455 103.937246,40.7455 C104.362046,40.7455 104.71896,40.9035 105.00696,41.2185 C105.293931,41.5345 105.43896,41.9855 105.43896,42.5715 C105.43896,43.1725 105.293931,43.6315 105.00696,43.9465 M103.931074,39.4545 C103.328331,39.4545 102.783189,39.5845 102.293589,39.8435 C101.805017,40.1035 101.427531,40.4785 101.161131,40.9705 C100.893703,41.4635 100.761017,41.9725 100.761017,42.4985 C100.761017,43.1855 100.893703,43.7695 101.161131,44.2485 C101.427531,44.7275 101.816331,45.0905 102.32856,45.3385 C102.840789,45.5865 103.378731,45.7105 103.943417,45.7105 C104.85576,45.7105 105.61176,45.4125 106.212446,44.8175 C106.813131,44.2215 107.114503,43.4715 107.114503,42.5655 C107.114503,41.6675 106.816217,40.9255 106.221703,40.3375 C105.62616,39.7485 104.861931,39.4545 103.931074,39.4545" id="Fill-46" fill="#45A1D0" mask="url(#mask-6)"></path>
            <path d="M150.150651,41.822 C149.282537,41.63 148.775451,41.482 148.629394,41.377 C148.520366,41.298 148.46688,41.202 148.46688,41.089 C148.46688,40.958 148.528594,40.851 148.652023,40.768 C148.838194,40.652 149.144709,40.593 149.573623,40.593 C149.91408,40.593 150.175337,40.655 150.359451,40.78 C150.543566,40.904 150.668023,41.082 150.732823,41.315 L152.269509,41.039 C152.114194,40.516 151.832366,40.122 151.422994,39.855 C151.013623,39.589 150.387223,39.455 149.544823,39.455 C148.660251,39.455 148.007109,39.632 147.585394,39.985 C147.164709,40.338 146.953851,40.774 146.953851,41.292 C146.953851,41.867 147.197623,42.316 147.685166,42.639 C148.035909,42.872 148.869051,43.13 150.182537,43.411 C150.465394,43.475 150.645394,43.545 150.72768,43.62 C150.804823,43.698 150.843909,43.798 150.843909,43.918 C150.843909,44.095 150.771909,44.236 150.628937,44.341 C150.416023,44.491 150.099223,44.567 149.678537,44.567 C149.295909,44.567 148.998651,44.487 148.785737,44.327 C148.572823,44.167 148.431909,43.933 148.362994,43.625 L146.727566,43.867 C146.877737,44.435 147.198651,44.884 147.686194,45.215 C148.175794,45.545 148.840251,45.711 149.678537,45.711 C150.601166,45.711 151.299566,45.513 151.770651,45.119 C152.241737,44.724 152.478309,44.253 152.478309,43.704 C152.478309,43.201 152.308594,42.808 151.968137,42.527 C151.624594,42.248 151.018766,42.013 150.150651,41.822" id="Fill-47" fill="#45A1D0" mask="url(#mask-6)"></path>
            <path d="M143.986217,42.115 C143.986217,42.971 143.945074,43.51 143.864846,43.73 C143.783589,43.949 143.632389,44.134 143.411246,44.282 C143.19216,44.43 142.942217,44.505 142.664503,44.505 C142.42176,44.505 142.22016,44.449 142.06176,44.338 C141.90336,44.227 141.793303,44.077 141.734674,43.887 C141.673989,43.698 141.64416,43.182 141.64416,42.341 L141.64416,39.59 L140.015931,39.59 L140.015931,43.377 C140.015931,43.941 140.08896,44.383 140.236046,44.702 C140.382103,45.021 140.620731,45.269 140.948846,45.446 C141.27696,45.622 141.648274,45.711 142.06176,45.711 C142.467017,45.711 142.852731,45.618 143.217874,45.434 C143.583017,45.25 143.878217,44.999 144.101417,44.679 L144.101417,45.575 L145.614446,45.575 L145.614446,39.59 L143.986217,39.59 L143.986217,42.115 Z" id="Fill-48" fill="#45A1D0" mask="url(#mask-6)"></path>
            <path d="M136.667726,43.9465 C136.379726,44.2615 136.02384,44.4205 135.598011,44.4205 C135.173211,44.4205 134.815269,44.2615 134.52624,43.9465 C134.236183,43.6315 134.091154,43.1765 134.091154,42.5825 C134.091154,41.9885 134.236183,41.5345 134.52624,41.2185 C134.815269,40.9035 135.173211,40.7455 135.598011,40.7455 C136.02384,40.7455 136.379726,40.9035 136.667726,41.2185 C136.955726,41.5345 137.099726,41.9855 137.099726,42.5715 C137.099726,43.1725 136.955726,43.6315 136.667726,43.9465 M135.592869,39.4545 C134.989097,39.4545 134.443954,39.5845 133.954354,39.8435 C133.466811,40.1035 133.089326,40.4785 132.821897,40.9705 C132.555497,41.4635 132.421783,41.9725 132.421783,42.4985 C132.421783,43.1855 132.555497,43.7695 132.821897,44.2485 C133.089326,44.7275 133.477097,45.0905 133.989326,45.3385 C134.502583,45.5865 135.039497,45.7105 135.604183,45.7105 C136.516526,45.7105 137.272526,45.4125 137.873211,44.8175 C138.474926,44.2215 138.775269,43.4715 138.775269,42.5655 C138.775269,41.6675 138.478011,40.9255 137.882469,40.3375 C137.287954,39.7485 136.523726,39.4545 135.592869,39.4545" id="Fill-49" fill="#45A1D0" mask="url(#mask-6)"></path>
        </g>
    </g>
</svg>