<?xml version="1.0" encoding="UTF-8"?>
<svg width="133px" height="33px" viewBox="0 0 133 33" version="1.1" xmlns="http://www.w3.org/2000/svg" xmlns:xlink="http://www.w3.org/1999/xlink">
    <!-- Generator: Sketch 54.1 (76490) - https://sketchapp.com -->
    <title>Group 49</title>
    <desc>Created with Sketch.</desc>
    <defs>
        <polygon id="path-1" points="0 0.4813 11.4053 0.4813 11.4053 14.8113 0 14.8113"></polygon>
        <polygon id="path-3" points="0 32.2056 132.762 32.2056 132.762 -0.0004 0 -0.0004"></polygon>
    </defs>
    <g id="Symbols" stroke="none" stroke-width="1" fill="none" fill-rule="evenodd">
        <g id="Group-49">
            <path d="M9.1913,13.038 C9.1913,11.754 10.2413,10.704 11.5583,10.479 L11.5583,-7.10542736e-15 C8.9873,1.273 7.1793,2.06 6.1353,2.36 C2.1663,3.501 0.1623,3.719 0.1623,5.98 L0.0003,14.631 L9.8273,14.631 C9.4283,14.197 9.1913,13.643 9.1913,13.038" id="Fill-1" fill="#5FC5FC"></path>
            <g id="Group-5" transform="translate(0.000000, 15.205600)">
                <mask id="mask-2" fill="white">
                    <use xlink:href="#path-1"></use>
                </mask>
                <g id="Clip-4"></g>
                <path d="M8.6693,2.7733 C8.7273,2.2233 8.7813,2.0713 9.2753,0.8603 C9.2923,0.8183 9.3083,0.7793 9.3233,0.7413 L9.3593,0.6513 C9.3773,0.6083 9.4003,0.5493 9.4283,0.4813 L0.0063,0.4813 C-0.0827,4.0233 0.7003,6.8713 2.3553,9.0273 C4.0093,11.1833 7.0263,13.1113 11.4053,14.8113 L11.4053,4.7953 C10.9113,4.7623 10.4453,4.6803 10.0573,4.5493 C9.1883,4.2563 8.5733,3.6963 8.6693,2.7733" id="Fill-3" fill="#3E96DE" mask="url(#mask-2)"></path>
            </g>
            <path d="M18.0443,2.3602 C17.0003,2.0602 15.1923,1.2732 12.6223,0.0002 L12.6223,10.5072 C13.8703,10.7802 14.8453,11.8012 14.8453,13.0382 C14.8453,13.6432 14.6073,14.1962 14.2093,14.6312 L24.1803,14.6312 L24.0173,5.9802 C24.0173,3.7192 22.0133,3.5012 18.0443,2.3602" id="Fill-6" fill="#2A6FB0"></path>
            <path d="M14.6776,15.8573 L14.7136,15.9473 C14.7286,15.9843 14.7446,16.0243 14.7616,16.0653 C15.2556,17.2773 15.3106,17.4293 15.3676,17.9793 C15.4636,18.9023 14.8486,19.4623 13.9796,19.7543 C13.6296,19.8733 13.2156,19.9513 12.7746,19.9903 L12.7746,30.0163 C17.1536,28.3163 20.1706,26.3883 21.8246,24.2323 C23.4796,22.0773 24.2626,19.2283 24.1736,15.6873 L14.6086,15.6873 C14.6356,15.7553 14.6596,15.8143 14.6776,15.8573" id="Fill-8" fill="#2E79C4"></path>
            <path d="M14.2928,18.0345 C14.2368,17.5135 13.9608,16.9405 13.6998,16.3065 C13.2998,15.3335 12.8848,14.4075 12.9338,14.3865 C13.5058,14.1455 13.8968,13.6675 13.8968,13.1165 C13.8968,12.3245 13.0878,11.6145 12.0898,11.6145 C11.0918,11.6145 10.2838,12.3245 10.2838,13.1165 C10.2838,13.6675 10.6738,14.1455 11.2458,14.3865 C11.2948,14.4075 10.8808,15.3335 10.4798,16.3065 C10.2188,16.9405 9.9428,17.5135 9.8868,18.0345 C9.7708,19.1275 14.4098,19.1275 14.2928,18.0345" id="Fill-10" fill="#8A8A8A"></path>
            <mask id="mask-4" fill="white">
                <use xlink:href="#path-3"></use>
            </mask>
            <g id="Clip-13"></g>
            <polygon id="Fill-12" fill="#525252" mask="url(#mask-4)" points="118.037 22.7706 122.19 22.7706 122.19 10.1006 118.037 10.1006"></polygon>
            <polygon id="Fill-14" fill="#525252" mask="url(#mask-4)" points="118.037 9.3276 122.19 9.3276 122.19 7.3126 118.037 7.3126"></polygon>
            <polygon id="Fill-15" fill="#525252" mask="url(#mask-4)" points="113.904 22.7706 116.949 22.7706 116.949 19.6196 113.904 19.6196"></polygon>
            <path d="M128.7294,19.4384 C128.7294,19.9854 128.6904,20.3424 128.6144,20.5074 C128.5384,20.6734 128.3794,20.7554 128.1394,20.7554 C127.9074,20.7554 127.7504,20.6654 127.6704,20.4834 C127.5904,20.3024 127.5504,19.9124 127.5504,19.3144 L127.5504,13.5954 C127.5504,12.9454 127.5904,12.5374 127.6704,12.3684 C127.7504,12.1994 127.9104,12.1154 128.1504,12.1154 C128.3894,12.1154 128.5454,12.1994 128.6194,12.3684 C128.6924,12.5374 128.7294,12.9454 128.7294,13.5954 L128.7294,19.4384 Z M132.5674,12.5444 C132.4374,12.1054 132.1964,11.6794 131.8434,11.2654 C131.4914,10.8514 130.9904,10.5164 130.3404,10.2584 C129.6924,10.0004 128.9154,9.8714 128.0094,9.8714 C126.9314,9.8714 126.0464,10.0724 125.3544,10.4734 C124.6634,10.8744 124.1834,11.4054 123.9174,12.0674 C123.6514,12.7294 123.5174,13.6494 123.5174,14.8264 L123.5174,18.0734 C123.5174,19.1484 123.5904,19.9554 123.7374,20.4934 C123.8834,21.0314 124.1284,21.4894 124.4714,21.8684 C124.8144,22.2474 125.2944,22.5304 125.9144,22.7184 C126.5334,22.9054 127.2884,22.9994 128.1794,22.9994 C128.9784,22.9994 129.6854,22.8904 130.3014,22.6704 C130.9174,22.4504 131.4204,22.1104 131.8134,21.6484 C132.2064,21.1874 132.4624,20.6904 132.5824,20.1594 C132.7024,19.6274 132.7614,18.7924 132.7614,17.6524 L132.7614,14.5494 C132.7614,13.6524 132.6974,12.9834 132.5674,12.5444 L132.5674,12.5444 Z" id="Fill-16" fill="#525252" mask="url(#mask-4)"></path>
            <path d="M97.08,22.7704 L97.08,14.5114 C97.08,13.4234 97.122,12.7514 97.205,12.4974 C97.288,12.2424 97.472,12.1154 97.758,12.1154 C98.037,12.1154 98.215,12.2444 98.291,12.5014 C98.367,12.7594 98.405,13.4294 98.405,14.5114 L98.405,22.7704 L102.312,22.7704 L102.312,13.7674 C102.312,12.7294 102.25,11.9794 102.124,11.5184 C101.997,11.0574 101.71,10.6664 101.262,10.3494 C100.812,10.0304 100.246,9.8714 99.561,9.8714 C99.044,9.8714 98.572,9.9904 98.146,10.2294 C97.722,10.4684 97.339,10.8264 97,11.3034 C96.383,10.3494 95.535,9.8714 94.459,9.8714 C93.907,9.8714 93.415,9.9904 92.983,10.2294 C92.552,10.4684 92.18,10.8264 91.867,11.3034 L91.936,10.1004 L87.96,10.1004 L87.96,22.7704 L91.867,22.7704 L91.867,13.9864 C91.867,13.3754 91.874,12.9764 91.887,12.7884 C91.9,12.6004 91.97,12.4414 92.097,12.3114 C92.223,12.1804 92.376,12.1154 92.555,12.1154 C92.841,12.1154 93.015,12.2394 93.078,12.4874 C93.142,12.7354 93.173,13.4804 93.173,14.7214 L93.173,22.7704 L97.08,22.7704 Z" id="Fill-17" fill="#46A7EB" mask="url(#mask-4)"></path>
            <polygon id="Fill-18" fill="#46A7EB" mask="url(#mask-4)" points="70.2479 15.7435 72.4309 22.7705 76.1079 22.7705 76.1079 7.3125 72.6009 7.3125 72.6009 14.2725 70.2479 7.3125 66.7399 7.3125 66.7399 22.7705 70.2479 22.7705"></polygon>
            <path d="M81.4266,17.8822 C81.5296,17.5762 81.9036,17.1972 82.5476,16.7462 L82.5476,19.3522 C82.5476,19.9882 82.5096,20.3822 82.4336,20.5312 C82.3566,20.6812 82.1926,20.7562 81.9396,20.7562 C81.6736,20.7562 81.4956,20.6602 81.4056,20.4692 C81.3166,20.2782 81.2716,19.8552 81.2716,19.1992 C81.2716,18.6272 81.3226,18.1872 81.4266,17.8822 M78.3756,22.4312 C78.9646,22.8102 79.6106,22.9992 80.3156,22.9992 C80.8536,22.9992 81.3166,22.8862 81.7046,22.6602 C82.0936,22.4342 82.4106,22.0952 82.6566,21.6442 L82.6566,22.7702 L86.5736,22.7702 L86.5736,16.4112 C86.5736,14.3172 86.5046,12.9342 86.3646,12.2632 C86.2256,11.5912 85.8106,11.0252 85.1186,10.5642 C84.4286,10.1022 83.4016,9.8712 82.0386,9.8712 C80.9036,9.8712 79.9796,10.0752 79.2686,10.4822 C78.5576,10.8902 78.0836,11.3592 77.8486,11.8912 C77.6126,12.4222 77.4936,13.1782 77.4936,14.1582 L77.4936,15.0082 L81.2716,15.0082 L81.2716,13.6812 C81.2716,12.9742 81.3046,12.5372 81.3716,12.3682 C81.4386,12.1992 81.6076,12.1152 81.8796,12.1152 C82.1186,12.1152 82.2896,12.2152 82.3936,12.4162 C82.4956,12.6162 82.5476,13.0482 82.5476,13.7102 C82.5476,14.2382 82.5006,14.5882 82.4076,14.7592 C82.3156,14.9312 81.6076,15.2662 80.2846,15.7622 C79.0486,16.2202 78.2756,16.6212 77.9626,16.9652 C77.6506,17.3092 77.4936,17.9552 77.4936,18.9032 L77.4936,19.9442 C77.4936,21.2232 77.7876,22.0522 78.3756,22.4312" id="Fill-19" fill="#46A7EB" mask="url(#mask-4)"></path>
            <path d="M107.6053,13.6713 C107.6053,12.9583 107.6383,12.5213 107.7053,12.3593 C107.7713,12.1963 107.9443,12.1153 108.2233,12.1153 C108.4493,12.1153 108.5983,12.2113 108.6713,12.4013 C108.7453,12.5923 108.7813,13.0163 108.7813,13.6713 L108.7813,14.5973 L107.6053,14.5973 L107.6053,13.6713 Z M108.3133,22.9993 C109.1903,22.9993 109.9193,22.8803 110.5013,22.6413 C111.0823,22.4023 111.5623,22.0453 111.9413,21.5673 C112.3203,21.0903 112.5603,20.6413 112.6643,20.2213 C112.7663,19.8013 112.8183,19.1993 112.8183,18.4173 L112.8183,17.4813 L109.0013,17.4813 L109.0013,19.1513 C109.0013,19.7823 108.9493,20.2073 108.8463,20.4263 C108.7433,20.6463 108.5393,20.7553 108.2333,20.7553 C107.9873,20.7553 107.8213,20.6733 107.7353,20.5073 C107.6483,20.3423 107.6053,19.9733 107.6053,19.4003 L107.6053,16.6603 L112.8183,16.6603 L112.8183,14.9793 C112.8183,13.7513 112.6703,12.7973 112.3753,12.1203 C112.0793,11.4423 111.5643,10.8983 110.8303,10.4873 C110.0953,10.0763 109.1643,9.8713 108.0343,9.8713 C107.1103,9.8713 106.2933,10.0423 105.5823,10.3823 C104.8713,10.7233 104.3593,11.2133 104.0463,11.8523 C103.7353,12.4923 103.5793,13.3663 103.5793,14.4733 L103.5793,18.1683 C103.5793,19.1103 103.6483,19.8283 103.7883,20.3213 C103.9273,20.8153 104.1783,21.2663 104.5413,21.6773 C104.9023,22.0883 105.4093,22.4113 106.0603,22.6463 C106.7113,22.8813 107.4623,22.9993 108.3133,22.9993 L108.3133,22.9993 Z" id="Fill-20" fill="#46A7EB" mask="url(#mask-4)"></path>
            <path d="M60.3817,13.7079 C60.3817,12.9939 60.4157,12.5549 60.4827,12.3929 C60.5497,12.2299 60.7247,12.1479 61.0067,12.1479 C61.2357,12.1479 61.3857,12.2439 61.4607,12.4359 C61.5337,12.6269 61.5707,13.0509 61.5707,13.7079 L61.5707,14.6359 L60.3817,14.6359 L60.3817,13.7079 Z M63.3097,22.6959 C63.8977,22.4569 64.3827,22.0979 64.7667,21.6199 C65.1497,21.1419 65.3927,20.6919 65.4967,20.2709 C65.6017,19.8499 65.6527,19.2469 65.6527,18.4629 L65.6527,17.5249 L61.7927,17.5249 L61.7927,19.1989 C61.7927,19.8309 61.7407,20.2559 61.6367,20.4769 C61.5327,20.6969 61.3257,20.8069 61.0167,20.8069 C60.7677,20.8069 60.5997,20.7239 60.5127,20.5579 C60.4247,20.3919 60.3817,20.0219 60.3817,19.4479 L60.3817,16.7029 L65.6527,16.7029 L65.6527,15.0189 C65.6527,13.7879 65.5037,12.8329 65.2047,12.1529 C64.9057,11.4739 64.3847,10.9289 63.6427,10.5179 C62.8997,10.1059 61.9577,9.8999 60.8157,9.8999 C59.8817,9.8999 59.0547,10.0709 58.3357,10.4119 C57.6167,10.7529 57.0987,11.2449 56.7827,11.8849 C56.4677,12.5259 56.3097,13.4019 56.3097,14.5119 L56.3097,18.2139 C56.3097,19.1579 56.3807,19.8769 56.5217,20.3719 C56.6627,20.8659 56.9157,21.3179 57.2817,21.7299 C57.6487,22.1409 58.1607,22.4649 58.8197,22.7009 C59.4777,22.9369 60.2367,23.0549 61.0977,23.0549 C61.9847,23.0549 62.7217,22.9349 63.3097,22.6959 L63.3097,22.6959 Z" id="Fill-21" fill="#205995" mask="url(#mask-4)"></path>
            <path d="M30.3446,14.6356 C30.6876,14.9356 31.3866,15.4176 32.4416,16.0806 C33.4956,16.7376 34.1576,17.2056 34.4266,17.4866 C34.6886,17.7676 34.8196,18.3636 34.8196,19.2756 C34.8196,19.6906 34.7506,20.0026 34.6136,20.2136 C34.4756,20.4236 34.2656,20.5296 33.9836,20.5296 C33.7006,20.5296 33.5046,20.4466 33.3936,20.2806 C33.2826,20.1146 33.2276,19.7416 33.2276,19.1606 L33.2276,17.2766 L29.2856,17.2766 L29.2856,18.2906 C29.2856,19.4506 29.4106,20.3466 29.6586,20.9786 C29.9076,21.6106 30.4336,22.1296 31.2366,22.5376 C32.0396,22.9466 33.0096,23.1506 34.1446,23.1506 C35.1796,23.1506 36.0866,22.9736 36.8656,22.6196 C37.6456,22.2656 38.1716,21.8266 38.4436,21.3036 C38.7156,20.7816 38.8516,19.9676 38.8516,18.8646 C38.8516,17.3466 38.6066,16.2466 38.1156,15.5636 C37.6256,14.8816 36.4356,14.0076 34.5476,12.9426 C33.8886,12.5726 33.4896,12.2566 33.3476,11.9956 C33.2006,11.7336 33.1266,11.3446 33.1266,10.8276 C33.1266,10.4266 33.1916,10.1266 33.3236,9.9286 C33.4536,9.7316 33.6476,9.6326 33.9026,9.6326 C34.1376,9.6326 34.3056,9.7056 34.4066,9.8526 C34.5076,9.9986 34.5576,10.3406 34.5576,10.8756 L34.5576,12.0246 L38.4986,12.0246 L38.4986,11.4116 C38.4986,10.1806 38.3726,9.3086 38.1206,8.7956 C37.8686,8.2816 37.3546,7.8556 36.5786,7.5176 C35.8026,7.1796 34.8636,7.0106 33.7616,7.0106 C32.7536,7.0106 31.8936,7.1656 31.1806,7.4746 C30.4686,7.7836 29.9526,8.2136 29.6346,8.7616 C29.3146,9.3106 29.1556,10.1776 29.1556,11.3646 C29.1556,12.1866 29.2676,12.8626 29.4926,13.3916 C29.7186,13.9216 30.0016,14.3356 30.3446,14.6356" id="Fill-22" fill="#205995" mask="url(#mask-4)"></path>
            <path d="M52.1566,7.5087 C51.7266,7.6237 51.3926,7.7907 51.1536,8.0107 C50.9156,8.2307 50.7656,8.4817 50.7056,8.7617 C50.6446,9.0427 50.6146,9.6007 50.6146,10.4357 L49.7776,10.4357 L49.7776,12.4457 L50.6146,12.4457 L50.6146,22.8247 L54.6866,22.8247 L54.6866,12.4457 L55.6546,12.4457 L55.6546,10.4357 L53.9406,10.4357 L53.9406,10.0337 C53.9406,9.6897 54.0166,9.4807 54.1676,9.4077 C54.3186,9.3347 54.8146,9.2977 55.6546,9.2977 L55.6546,7.3367 L54.1626,7.3367 C53.2556,7.3367 52.5866,7.3937 52.1566,7.5087" id="Fill-23" fill="#205995" mask="url(#mask-4)"></path>
            <path d="M43.8563,17.9266 C43.9603,17.6206 44.3383,17.2406 44.9903,16.7886 L44.9903,19.4006 C44.9903,20.0376 44.9513,20.4316 44.8743,20.5816 C44.7963,20.7316 44.6303,20.8066 44.3753,20.8066 C44.1063,20.8066 43.9263,20.7106 43.8353,20.5196 C43.7453,20.3276 43.7003,19.9046 43.7003,19.2466 C43.7003,18.6736 43.7523,18.2326 43.8563,17.9266 M44.1383,22.7156 C44.5313,22.4886 44.8523,22.1496 45.1013,21.6966 L45.1013,22.8246 L49.0623,22.8246 L49.0623,16.4536 C49.0623,14.3556 48.9913,12.9696 48.8503,12.2966 C48.7093,11.6236 48.2893,11.0556 47.5903,10.5936 C46.8923,10.1316 45.8533,9.9006 44.4763,9.9006 C43.3273,9.9006 42.3933,10.1046 41.6743,10.5126 C40.9553,10.9206 40.4763,11.3906 40.2373,11.9236 C39.9993,12.4556 39.8793,13.2136 39.8793,14.1956 L39.8793,15.0476 L43.7003,15.0476 L43.7003,13.7176 C43.7003,13.0096 43.7333,12.5716 43.8003,12.4016 C43.8683,12.2326 44.0393,12.1486 44.3143,12.1486 C44.5563,12.1486 44.7303,12.2486 44.8343,12.4496 C44.9383,12.6506 44.9903,13.0826 44.9903,13.7456 C44.9903,14.2756 44.9433,14.6266 44.8493,14.7986 C44.7543,14.9706 44.0393,15.3056 42.7023,15.8026 C41.4523,16.2616 40.6693,16.6636 40.3533,17.0086 C40.0383,17.3526 39.8793,18.0006 39.8793,18.9506 L39.8793,19.9936 C39.8793,21.2756 40.1773,22.1056 40.7723,22.4856 C41.3663,22.8646 42.0203,23.0546 42.7323,23.0546 C43.2763,23.0546 43.7453,22.9416 44.1383,22.7156" id="Fill-24" fill="#205995" mask="url(#mask-4)"></path>
            <path d="M65.9984,26.8075 C65.8964,26.6735 65.7464,26.5635 65.5484,26.4775 C65.3504,26.3905 65.1314,26.3485 64.8924,26.3485 C64.3494,26.3485 63.8984,26.5795 63.5404,27.0425 L63.5404,26.4405 L62.5324,26.4405 L62.5324,30.5415 L63.6174,30.5415 L63.6174,28.6835 C63.6174,28.2255 63.6454,27.9115 63.7004,27.7425 C63.7564,27.5725 63.8584,27.4355 64.0074,27.3325 C64.1574,27.2295 64.3254,27.1785 64.5134,27.1785 C64.6604,27.1785 64.7864,27.2145 64.8904,27.2865 C64.9944,27.3585 65.0694,27.4595 65.1164,27.5895 C65.1624,27.7195 65.1854,28.0055 65.1854,28.4485 L65.1854,30.5415 L66.2704,30.5415 L66.2704,27.9935 C66.2704,27.6765 66.2504,27.4325 66.2104,27.2635 C66.1704,27.0935 66.1004,26.9415 65.9984,26.8075" id="Fill-25" fill="#45A1D0" mask="url(#mask-4)"></path>
            <path d="M51.3427,28.1395 C51.3407,27.8435 51.4157,27.6095 51.5707,27.4365 C51.7247,27.2645 51.9207,27.1785 52.1577,27.1785 C52.3787,27.1785 52.5667,27.2605 52.7207,27.4235 C52.8757,27.5865 52.9567,27.8255 52.9647,28.1395 L51.3427,28.1395 Z M53.5357,26.9525 C53.1837,26.5495 52.7017,26.3475 52.0917,26.3475 C51.5487,26.3475 51.0997,26.5405 50.7437,26.9255 C50.3887,27.3095 50.2117,27.8425 50.2117,28.5215 C50.2117,29.0905 50.3467,29.5615 50.6167,29.9345 C50.9597,30.4015 51.4867,30.6345 52.1997,30.6345 C52.6507,30.6345 53.0257,30.5305 53.3257,30.3235 C53.6257,30.1165 53.8447,29.8145 53.9837,29.4175 L52.9027,29.2365 C52.8437,29.4425 52.7557,29.5915 52.6397,29.6835 C52.5247,29.7765 52.3817,29.8235 52.2117,29.8235 C51.9617,29.8235 51.7537,29.7335 51.5857,29.5555 C51.4187,29.3755 51.3307,29.1255 51.3237,28.8035 L54.0417,28.8035 C54.0567,27.9725 53.8887,27.3555 53.5357,26.9525 L53.5357,26.9525 Z" id="Fill-26" fill="#45A1D0" mask="url(#mask-4)"></path>
            <path d="M45.2421,28.1703 C45.2421,28.7573 45.2151,29.1263 45.1611,29.2763 C45.1071,29.4273 45.0061,29.5533 44.8601,29.6553 C44.7131,29.7563 44.5471,29.8073 44.3621,29.8073 C44.1991,29.8073 44.0651,29.7703 43.9601,29.6933 C43.8541,29.6183 43.7821,29.5153 43.7421,29.3853 C43.7021,29.2543 43.6821,28.9013 43.6821,28.3253 L43.6821,26.4413 L42.5971,26.4413 L42.5971,29.0353 C42.5971,29.4213 42.6461,29.7243 42.7431,29.9423 C42.8421,30.1613 43.0001,30.3313 43.2191,30.4523 C43.4371,30.5733 43.6841,30.6343 43.9601,30.6343 C44.2301,30.6343 44.4871,30.5713 44.7301,30.4443 C44.9731,30.3183 45.1701,30.1463 45.3191,29.9273 L45.3191,30.5413 L46.3271,30.5413 L46.3271,26.4413 L45.2421,26.4413 L45.2421,28.1703 Z" id="Fill-27" fill="#45A1D0" mask="url(#mask-4)"></path>
            <path d="M48.8773,26.4794 C48.7393,26.5664 48.5843,26.7484 48.4123,27.0234 L48.4123,26.4404 L47.4043,26.4404 L47.4043,30.5414 L48.4893,30.5414 L48.4893,29.2744 C48.4893,28.5774 48.5193,28.1194 48.5803,27.9004 C48.6403,27.6814 48.7233,27.5304 48.8293,27.4464 C48.9343,27.3624 49.0633,27.3214 49.2153,27.3214 C49.3723,27.3214 49.5423,27.3804 49.7253,27.4994 L50.0613,26.5524 C49.8313,26.4164 49.5933,26.3484 49.3463,26.3484 C49.1713,26.3484 49.0153,26.3924 48.8773,26.4794" id="Fill-28" fill="#45A1D0" mask="url(#mask-4)"></path>
            <path d="M58.2928,28.3016 L59.0578,26.2016 L59.8378,28.3016 L58.2928,28.3016 Z M58.4668,24.8806 L56.2618,30.5416 L57.4748,30.5416 L57.9418,29.2556 L60.2048,29.2556 L60.6988,30.5416 L61.9418,30.5416 L59.6748,24.8806 L58.4668,24.8806 Z" id="Fill-29" fill="#45A1D0" mask="url(#mask-4)"></path>
            <path d="M40.5082,29.5741 C40.3772,29.6911 40.2082,29.7501 40.0022,29.7501 C39.7262,29.7501 39.5072,29.6491 39.3432,29.4491 C39.1802,29.2481 39.0982,28.9041 39.0982,28.4181 C39.0982,27.9801 39.1792,27.6681 39.3402,27.4811 C39.5012,27.2951 39.7162,27.2011 39.9872,27.2011 C40.1902,27.2011 40.3552,27.2551 40.4832,27.3641 C40.6102,27.4711 40.6922,27.6331 40.7282,27.8461 L41.7982,27.6531 C41.6692,27.2131 41.4572,26.8851 41.1622,26.6701 C40.8672,26.4551 40.4702,26.3481 39.9712,26.3481 C39.3612,26.3481 38.8772,26.5361 38.5192,26.9131 C38.1612,27.2911 37.9832,27.8181 37.9832,28.4951 C37.9832,29.1641 38.1612,29.6881 38.5172,30.0661 C38.8742,30.4451 39.3522,30.6341 39.9522,30.6341 C40.4802,30.6341 40.9002,30.5091 41.2152,30.2601 C41.5292,30.0101 41.7412,29.6401 41.8512,29.1511 L40.7862,28.9701 C40.7322,29.2561 40.6392,29.4571 40.5082,29.5741" id="Fill-30" fill="#45A1D0" mask="url(#mask-4)"></path>
            <path d="M34.6385,28.1395 C34.6365,27.8435 34.7125,27.6095 34.8665,27.4365 C35.0205,27.2645 35.2165,27.1785 35.4535,27.1785 C35.6745,27.1785 35.8625,27.2605 36.0175,27.4235 C36.1715,27.5865 36.2525,27.8255 36.2605,28.1395 L34.6385,28.1395 Z M36.8315,26.9525 C36.4795,26.5495 35.9975,26.3475 35.3885,26.3475 C34.8445,26.3475 34.3955,26.5405 34.0405,26.9255 C33.6845,27.3095 33.5075,27.8425 33.5075,28.5215 C33.5075,29.0905 33.6425,29.5615 33.9125,29.9345 C34.2555,30.4015 34.7835,30.6345 35.4955,30.6345 C35.9465,30.6345 36.3215,30.5305 36.6215,30.3235 C36.9215,30.1165 37.1405,29.8145 37.2795,29.4175 L36.1985,29.2365 C36.1395,29.4425 36.0525,29.5915 35.9365,29.6835 C35.8205,29.7765 35.6775,29.8235 35.5075,29.8235 C35.2575,29.8235 35.0495,29.7335 34.8825,29.5555 C34.7145,29.3755 34.6275,29.1255 34.6195,28.8035 L37.3375,28.8035 C37.3535,27.9725 37.1845,27.3555 36.8315,26.9525 L36.8315,26.9525 Z" id="Fill-31" fill="#45A1D0" mask="url(#mask-4)"></path>
            <path d="M32.0189,27.4159 C31.7519,27.2749 31.3409,27.1399 30.7849,27.0079 C30.2289,26.8769 29.8789,26.7509 29.7349,26.6299 C29.6219,26.5349 29.5649,26.4199 29.5649,26.2859 C29.5649,26.1399 29.6249,26.0219 29.7469,25.9349 C29.9349,25.7979 30.1939,25.7299 30.5259,25.7299 C30.8489,25.7299 31.0899,25.7939 31.2499,25.9209 C31.4119,26.0489 31.5169,26.2579 31.5649,26.5489 L32.7079,26.4989 C32.6899,25.9789 32.5009,25.5629 32.1429,25.2509 C31.7839,24.9399 31.2479,24.7839 30.5379,24.7839 C30.1029,24.7839 29.7319,24.8499 29.4239,24.9809 C29.1169,25.1119 28.8809,25.3039 28.7179,25.5549 C28.5539,25.8059 28.4729,26.0749 28.4729,26.3639 C28.4729,26.8119 28.6459,27.1909 28.9939,27.5019 C29.2409,27.7239 29.6709,27.9109 30.2829,28.0619 C30.7599,28.1809 31.0639,28.2629 31.1979,28.3099 C31.3939,28.3789 31.5309,28.4609 31.6099,28.5549 C31.6879,28.6489 31.7269,28.7629 31.7269,28.8959 C31.7269,29.1049 31.6339,29.2869 31.4479,29.4429 C31.2609,29.5989 30.9829,29.6769 30.6149,29.6769 C30.2679,29.6769 29.9919,29.5889 29.7869,29.4139 C29.5819,29.2389 29.4469,28.9649 29.3799,28.5909 L28.2679,28.6999 C28.3419,29.3329 28.5709,29.8149 28.9549,30.1449 C29.3379,30.4769 29.8879,30.6419 30.6039,30.6419 C31.0959,30.6419 31.5059,30.5729 31.8349,30.4349 C32.1649,30.2969 32.4199,30.0869 32.5999,29.8039 C32.7799,29.5209 32.8709,29.2169 32.8709,28.8929 C32.8709,28.5349 32.7949,28.2339 32.6439,27.9909 C32.4939,27.7479 32.2859,27.5559 32.0189,27.4159" id="Fill-32" fill="#45A1D0" mask="url(#mask-4)"></path>
            <polygon id="Fill-33" fill="#45A1D0" mask="url(#mask-4)" points="104.69 30.5416 105.833 30.5416 105.833 24.8806 104.69 24.8806"></polygon>
            <path d="M112.5594,28.1395 C112.5574,27.8435 112.6324,27.6095 112.7874,27.4365 C112.9424,27.2645 113.1374,27.1785 113.3734,27.1785 C113.5954,27.1785 113.7844,27.2605 113.9384,27.4235 C114.0924,27.5865 114.1734,27.8255 114.1814,28.1395 L112.5594,28.1395 Z M114.7524,26.9525 C114.4004,26.5495 113.9184,26.3475 113.3084,26.3475 C112.7654,26.3475 112.3164,26.5405 111.9604,26.9255 C111.6064,27.3095 111.4284,27.8425 111.4284,28.5215 C111.4284,29.0905 111.5634,29.5615 111.8334,29.9345 C112.1754,30.4015 112.7044,30.6345 113.4164,30.6345 C113.8674,30.6345 114.2424,30.5305 114.5424,30.3235 C114.8424,30.1165 115.0614,29.8145 115.2014,29.4175 L114.1204,29.2365 C114.0604,29.4425 113.9724,29.5915 113.8574,29.6835 C113.7414,29.7765 113.5984,29.8235 113.4284,29.8235 C113.1784,29.8235 112.9704,29.7335 112.8024,29.5555 C112.6354,29.3755 112.5474,29.1255 112.5394,28.8035 L115.2584,28.8035 C115.2744,27.9725 115.1054,27.3555 114.7524,26.9525 L114.7524,26.9525 Z" id="Fill-34" fill="#45A1D0" mask="url(#mask-4)"></path>
            <path d="M122.4139,29.7343 C122.3419,29.7343 122.2799,29.7163 122.2299,29.6803 C122.1799,29.6443 122.1479,29.5983 122.1339,29.5433 C122.1199,29.4873 122.1119,29.2933 122.1119,28.9583 L122.1119,27.3053 L122.8529,27.3053 L122.8529,26.4413 L122.1119,26.4413 L122.1119,24.9923 L121.0229,25.6263 L121.0229,26.4413 L120.5249,26.4413 L120.5249,27.3053 L121.0229,27.3053 L121.0229,29.0933 C121.0229,29.4773 121.0349,29.7323 121.0589,29.8583 C121.0869,30.0353 121.1379,30.1763 121.2109,30.2803 C121.2839,30.3853 121.3989,30.4703 121.5569,30.5353 C121.7139,30.6013 121.8899,30.6343 122.0859,30.6343 C122.4039,30.6343 122.6899,30.5803 122.9419,30.4723 L122.8509,29.6303 C122.6589,29.6993 122.5149,29.7343 122.4139,29.7343" id="Fill-35" fill="#45A1D0" mask="url(#mask-4)"></path>
            <path d="M109.3319,29.4584 C109.1559,29.6704 108.9439,29.7764 108.6939,29.7764 C108.3809,29.7764 108.1359,29.6354 107.9609,29.3524 C107.8399,29.1564 107.7789,28.8394 107.7789,28.4024 C107.7789,27.9954 107.8659,27.6894 108.0399,27.4854 C108.2139,27.2804 108.4299,27.1784 108.6859,27.1784 C108.9519,27.1784 109.1699,27.2814 109.3399,27.4894 C109.5099,27.6964 109.5949,28.0354 109.5949,28.5064 C109.5949,28.9284 109.5069,29.2464 109.3319,29.4584 L109.3319,29.4584 Z M109.5909,26.9194 C109.2559,26.5384 108.8589,26.3484 108.4009,26.3484 C107.9009,26.3484 107.4879,26.5284 107.1619,26.8904 C106.8349,27.2524 106.6709,27.7804 106.6709,28.4754 C106.6709,29.1554 106.8389,29.6854 107.1749,30.0644 C107.5109,30.4444 107.9149,30.6344 108.3859,30.6344 C108.6169,30.6344 108.8469,30.5764 109.0749,30.4624 C109.3029,30.3474 109.4999,30.1734 109.6679,29.9384 L109.6679,30.5414 L110.6759,30.5414 L110.6759,24.8804 L109.5909,24.8804 L109.5909,26.9194 Z" id="Fill-36" fill="#45A1D0" mask="url(#mask-4)"></path>
            <path d="M119.6005,26.8075 C119.4985,26.6735 119.3495,26.5635 119.1515,26.4775 C118.9535,26.3905 118.7345,26.3485 118.4945,26.3485 C117.9515,26.3485 117.5005,26.5795 117.1435,27.0425 L117.1435,26.4405 L116.1355,26.4405 L116.1355,30.5415 L117.2205,30.5415 L117.2205,28.6835 C117.2205,28.2255 117.2475,27.9115 117.3035,27.7425 C117.3585,27.5725 117.4605,27.4355 117.6105,27.3325 C117.7595,27.2295 117.9285,27.1785 118.1165,27.1785 C118.2625,27.1785 118.3885,27.2145 118.4925,27.2865 C118.5965,27.3585 118.6715,27.4595 118.7185,27.5895 C118.7645,27.7195 118.7885,28.0055 118.7885,28.4485 L118.7885,30.5415 L119.8725,30.5415 L119.8725,27.9935 C119.8725,27.6765 119.8535,27.4325 119.8135,27.2635 C119.7735,27.0935 119.7025,26.9415 119.6005,26.8075" id="Fill-37" fill="#45A1D0" mask="url(#mask-4)"></path>
            <polygon id="Fill-38" fill="#45A1D0" mask="url(#mask-4)" points="123.606 30.5416 124.692 30.5416 124.692 26.4406 123.606 26.4406"></polygon>
            <path d="M130.0594,29.3519 L129.0784,26.4409 L127.9234,26.4409 L129.4834,30.5529 C129.4184,30.7819 129.3274,30.9709 129.2054,31.1189 C129.0844,31.2669 128.8984,31.3409 128.6454,31.3409 C128.5094,31.3409 128.3564,31.3239 128.1864,31.2899 L128.2834,32.1399 C128.4834,32.1839 128.6884,32.2059 128.8964,32.2059 C129.1024,32.2059 129.2874,32.1839 129.4514,32.1399 C129.6144,32.0959 129.7514,32.0349 129.8644,31.9559 C129.9764,31.8779 130.0754,31.7759 130.1614,31.6499 C130.2474,31.5229 130.3384,31.3409 130.4334,31.1019 L130.6924,30.3869 L132.1404,26.4409 L131.0164,26.4409 L130.0594,29.3519 Z" id="Fill-39" fill="#45A1D0" mask="url(#mask-4)"></path>
            <polygon id="Fill-40" fill="#45A1D0" mask="url(#mask-4)" points="123.606 25.8846 124.692 25.8846 124.692 24.8806 123.606 24.8806"></polygon>
            <path d="M127.244,29.7343 C127.172,29.7343 127.111,29.7163 127.06,29.6803 C127.011,29.6443 126.978,29.5983 126.964,29.5433 C126.95,29.4873 126.943,29.2933 126.943,28.9583 L126.943,27.3053 L127.684,27.3053 L127.684,26.4413 L126.943,26.4413 L126.943,24.9923 L125.854,25.6263 L125.854,26.4413 L125.356,26.4413 L125.356,27.3053 L125.854,27.3053 L125.854,29.0933 C125.854,29.4773 125.866,29.7323 125.889,29.8583 C125.917,30.0353 125.968,30.1763 126.041,30.2803 C126.115,30.3853 126.23,30.4703 126.387,30.5353 C126.544,30.6013 126.721,30.6343 126.916,30.6343 C127.235,30.6343 127.52,30.5803 127.773,30.4723 L127.681,29.6303 C127.49,29.6993 127.345,29.7343 127.244,29.7343" id="Fill-41" fill="#45A1D0" mask="url(#mask-4)"></path>
            <path d="M78.6532,29.3519 L77.6732,26.4409 L76.5182,26.4409 L78.0782,30.5529 C78.0132,30.7819 77.9222,30.9709 77.8002,31.1189 C77.6792,31.2669 77.4932,31.3409 77.2402,31.3409 C77.1042,31.3409 76.9512,31.3239 76.7812,31.2899 L76.8782,32.1399 C77.0782,32.1839 77.2832,32.2059 77.4912,32.2059 C77.6972,32.2059 77.8822,32.1839 78.0462,32.1399 C78.2092,32.0959 78.3462,32.0349 78.4592,31.9559 C78.5702,31.8779 78.6702,31.7759 78.7562,31.6499 C78.8422,31.5229 78.9322,31.3409 79.0282,31.1019 L79.2872,30.3869 L80.7352,26.4409 L79.6112,26.4409 L78.6532,29.3519 Z" id="Fill-42" fill="#45A1D0" mask="url(#mask-4)"></path>
            <path d="M86.8007,26.5316 C86.5927,26.4086 86.3377,26.3476 86.0357,26.3476 C85.7997,26.3476 85.5767,26.4026 85.3677,26.5106 C85.1597,26.6186 84.9657,26.7816 84.7847,27.0006 C84.6617,26.7816 84.5037,26.6186 84.3107,26.5106 C84.1167,26.4026 83.8897,26.3476 83.6267,26.3476 C83.1327,26.3476 82.7067,26.5656 82.3487,27.0006 L82.3487,26.4406 L81.3487,26.4406 L81.3487,30.5416 L82.4337,30.5416 L82.4337,28.5486 C82.4337,28.1556 82.4627,27.8736 82.5207,27.7036 C82.5787,27.5336 82.6747,27.4036 82.8087,27.3136 C82.9427,27.2226 83.0927,27.1776 83.2607,27.1776 C83.3997,27.1776 83.5097,27.2066 83.5907,27.2626 C83.6717,27.3196 83.7317,27.4066 83.7697,27.5216 C83.8087,27.6376 83.8277,27.8946 83.8277,28.2946 L83.8277,30.5416 L84.9127,30.5416 L84.9127,28.5726 C84.9127,28.1856 84.9427,27.9036 85.0017,27.7246 C85.0607,27.5456 85.1567,27.4096 85.2907,27.3176 C85.4247,27.2246 85.5687,27.1776 85.7197,27.1776 C85.9287,27.1776 86.0827,27.2556 86.1837,27.4096 C86.2577,27.5286 86.2947,27.7906 86.2947,28.1976 L86.2947,30.5416 L87.3797,30.5416 L87.3797,27.9196 C87.3797,27.5286 87.3427,27.2446 87.2687,27.0706 C87.1647,26.8336 87.0097,26.6536 86.8007,26.5316" id="Fill-43" fill="#45A1D0" mask="url(#mask-4)"></path>
            <path d="M75.6591,26.8075 C75.5571,26.6735 75.4071,26.5635 75.2091,26.4775 C75.0121,26.3905 74.7921,26.3485 74.5531,26.3485 C74.0101,26.3485 73.5591,26.5795 73.2011,27.0425 L73.2011,26.4405 L72.1931,26.4405 L72.1931,30.5415 L73.2791,30.5415 L73.2791,28.6835 C73.2791,28.2255 73.3061,27.9115 73.3621,27.7425 C73.4171,27.5725 73.5191,27.4355 73.6691,27.3325 C73.8181,27.2295 73.9861,27.1785 74.1751,27.1785 C74.3211,27.1785 74.4471,27.2145 74.5511,27.2865 C74.6551,27.3585 74.7301,27.4595 74.7771,27.5895 C74.8231,27.7195 74.8471,28.0055 74.8471,28.4485 L74.8471,30.5415 L75.9311,30.5415 L75.9311,27.9935 C75.9311,27.6765 75.9111,27.4325 75.8721,27.2635 C75.8321,27.0935 75.7611,26.9415 75.6591,26.8075" id="Fill-44" fill="#45A1D0" mask="url(#mask-4)"></path>
            <path d="M69.9481,29.4257 C69.7571,29.6417 69.5191,29.7497 69.2361,29.7497 C68.9531,29.7497 68.7151,29.6417 68.5211,29.4257 C68.3291,29.2097 68.2321,28.8977 68.2321,28.4907 C68.2321,28.0847 68.3291,27.7727 68.5211,27.5567 C68.7151,27.3407 68.9531,27.2327 69.2361,27.2327 C69.5191,27.2327 69.7571,27.3407 69.9481,27.5567 C70.1401,27.7727 70.2361,28.0817 70.2361,28.4837 C70.2361,28.8957 70.1401,29.2097 69.9481,29.4257 M69.2321,26.3477 C68.8311,26.3477 68.4671,26.4367 68.1411,26.6147 C67.8151,26.7917 67.5641,27.0497 67.3861,27.3867 C67.2091,27.7237 67.1201,28.0727 67.1201,28.4327 C67.1201,28.9047 67.2091,29.3037 67.3861,29.6327 C67.5641,29.9607 67.8231,30.2097 68.1651,30.3797 C68.5061,30.5497 68.8641,30.6337 69.2401,30.6337 C69.8471,30.6337 70.3511,30.4297 70.7521,30.0217 C71.1521,29.6137 71.3521,29.0997 71.3521,28.4797 C71.3521,27.8637 71.1541,27.3557 70.7581,26.9527 C70.3611,26.5497 69.8521,26.3477 69.2321,26.3477" id="Fill-45" fill="#45A1D0" mask="url(#mask-4)"></path>
            <path d="M100.0204,27.9696 C99.4424,27.8386 99.1044,27.7366 99.0064,27.6646 C98.9344,27.6106 98.8984,27.5446 98.8984,27.4676 C98.8984,27.3776 98.9394,27.3046 99.0224,27.2476 C99.1454,27.1676 99.3504,27.1276 99.6354,27.1276 C99.8624,27.1276 100.0374,27.1706 100.1594,27.2556 C100.2814,27.3406 100.3644,27.4626 100.4084,27.6226 L101.4314,27.4326 C101.3284,27.0746 101.1404,26.8046 100.8684,26.6216 C100.5944,26.4396 100.1774,26.3476 99.6174,26.3476 C99.0274,26.3476 98.5914,26.4696 98.3114,26.7106 C98.0314,26.9526 97.8904,27.2516 97.8904,27.6066 C97.8904,28.0006 98.0524,28.3086 98.3764,28.5296 C98.6114,28.6896 99.1664,28.8656 100.0414,29.0586 C100.2294,29.1026 100.3504,29.1496 100.4044,29.2016 C100.4564,29.2556 100.4814,29.3236 100.4814,29.4066 C100.4814,29.5276 100.4334,29.6236 100.3384,29.6956 C100.1974,29.7986 99.9864,29.8496 99.7054,29.8496 C99.4504,29.8496 99.2524,29.7956 99.1114,29.6856 C98.9694,29.5766 98.8744,29.4166 98.8294,29.2056 L97.7404,29.3716 C97.8404,29.7606 98.0534,30.0676 98.3784,30.2946 C98.7054,30.5206 99.1464,30.6346 99.7054,30.6346 C100.3204,30.6346 100.7854,30.4986 101.0994,30.2286 C101.4134,29.9586 101.5704,29.6356 101.5704,29.2596 C101.5704,28.9146 101.4574,28.6456 101.2304,28.4526 C101.0014,28.2616 100.5974,28.1006 100.0204,27.9696" id="Fill-46" fill="#45A1D0" mask="url(#mask-4)"></path>
            <path d="M95.9139,28.1703 C95.9139,28.7573 95.8869,29.1263 95.8329,29.2763 C95.7779,29.4273 95.6779,29.5533 95.5309,29.6553 C95.3849,29.7563 95.2189,29.8073 95.0329,29.8073 C94.8709,29.8073 94.7369,29.7703 94.6319,29.6933 C94.5259,29.6183 94.4529,29.5153 94.4139,29.3853 C94.3739,29.2543 94.3529,28.9013 94.3529,28.3253 L94.3529,26.4413 L93.2679,26.4413 L93.2679,29.0353 C93.2679,29.4213 93.3169,29.7243 93.4149,29.9423 C93.5139,30.1613 93.6719,30.3313 93.8909,30.4523 C94.1089,30.5733 94.3559,30.6343 94.6319,30.6343 C94.9019,30.6343 95.1589,30.5713 95.4019,30.4443 C95.6449,30.3183 95.8419,30.1463 95.9909,29.9273 L95.9909,30.5413 L96.9989,30.5413 L96.9989,26.4413 L95.9139,26.4413 L95.9139,28.1703 Z" id="Fill-47" fill="#45A1D0" mask="url(#mask-4)"></path>
            <path d="M91.0389,29.4257 C90.8469,29.6417 90.6089,29.7497 90.3259,29.7497 C90.0429,29.7497 89.8049,29.6417 89.6119,29.4257 C89.4189,29.2097 89.3219,28.8977 89.3219,28.4907 C89.3219,28.0847 89.4189,27.7727 89.6119,27.5567 C89.8049,27.3407 90.0429,27.2327 90.3259,27.2327 C90.6089,27.2327 90.8469,27.3407 91.0389,27.5567 C91.2299,27.7727 91.3259,28.0817 91.3259,28.4837 C91.3259,28.8957 91.2299,29.2097 91.0389,29.4257 M90.3219,26.3477 C89.9209,26.3477 89.5579,26.4367 89.2309,26.6147 C88.9059,26.7917 88.6539,27.0497 88.4759,27.3867 C88.2989,27.7237 88.2099,28.0727 88.2099,28.4327 C88.2099,28.9047 88.2989,29.3037 88.4759,29.6327 C88.6539,29.9607 88.9139,30.2097 89.2549,30.3797 C89.5959,30.5497 89.9539,30.6337 90.3299,30.6337 C90.9369,30.6337 91.4409,30.4297 91.8419,30.0217 C92.2419,29.6137 92.4419,29.0997 92.4419,28.4797 C92.4419,27.8637 92.2439,27.3557 91.8479,26.9527 C91.4509,26.5497 90.9429,26.3477 90.3219,26.3477" id="Fill-48" fill="#45A1D0" mask="url(#mask-4)"></path>
        </g>
    </g>
</svg>