<?xml version="1.0" encoding="UTF-8"?>
<svg width="43px" height="43px" viewBox="0 0 43 43" version="1.1" xmlns="http://www.w3.org/2000/svg" xmlns:xlink="http://www.w3.org/1999/xlink">
    <!-- Generator: Sketch 55 (78076) - https://sketchapp.com -->
    <title>Artboard</title>
    <desc>Created with Sketch.</desc>
    <g id="Artboard" stroke="none" stroke-width="1" fill="none" fill-rule="evenodd">
        <path d="M21.5,43 C33.3741221,43 43,33.3741221 43,21.5 C43,9.62587788 33.3741221,0 21.5,0 C9.62587788,0 0,9.62587788 0,21.5 C0,33.3741221 9.62587788,43 21.5,43 Z M21.5,40 C11.2827321,40 3,31.7172679 3,21.5 C3,11.2827321 11.2827321,3 21.5,3 C31.7172679,3 40,11.2827321 40,21.5 C40,31.7172679 31.7172679,40 21.5,40 Z" id="Oval" fill="#2E5BFF" fill-rule="nonzero"></path>
        <g id="Group" transform="translate(10.719556, 12.274585)" fill="#2E5BFF">
            <polygon id="Path" points="2 17.7178683 20 17.7178683 20 13.7805643 2 13.7805643"></polygon>
            <path d="M0,3.65606807 C0,2.64699328 0.821333333,1.82803403 1.83333333,1.82803403 C3.20833333,1.82803403 4.2735,3.36906673 3.29816667,4.74740439 C2.80683333,5.44205732 2.926,5.85884908 3.25783333,6.34693417 C3.95816667,7.37611733 4.97383333,8.22615316 6.41666667,8.22615316 C8.7285,8.22615316 9.9495,6.32134169 10.2025,4.70901567 C10.2905,4.14780923 10.34,3.7273614 9.80283333,3.2063717 C9.43433333,2.84990506 9.16666667,2.38010031 9.16666667,1.82803403 C9.16666667,0.818959248 9.988,2.13162821e-14 11,2.13162821e-14 C12.012,2.13162821e-14 12.8333333,0.818959248 12.8333333,1.82803403 C12.8333333,2.38010031 12.5656667,2.84990506 12.1953333,3.2063717 C11.6581667,3.7273614 11.7076667,4.14780923 11.7956667,4.70901567 C12.0505,6.32134169 13.2715,8.22615316 15.5815,8.22615316 C17.0243333,8.22615316 18.04,7.37611733 18.7421667,6.34510614 C19.074,5.85884908 19.1913333,5.44022929 18.7018333,4.74557635 C17.7265,3.36906673 18.7916667,1.82803403 20.1666667,1.82803403 C21.1786667,1.82803403 22,2.64699328 22,3.65606807 C22,4.38362562 21.5746667,5.02160949 20.9513333,5.30861084 C20.196,5.6559373 20.1666667,6.51145723 20.1666667,7.29202777 L20.1666667,12.7962382 L1.83333333,12.7962382 L1.83333333,7.29202777 C1.83333333,6.51145723 1.804,5.65410927 1.04866667,5.30861084 C0.425333333,5.02160949 0,4.38362562 0,3.65606807 L0,3.65606807 Z" id="Path"></path>
        </g>
    </g>
</svg>